#VRML V2.0 utf8
# 3D model generated by easyeda2kicad.py (https://github.com/uPesy/easyeda2kicad.py)

Shape{
    appearance Appearance {
        material  Material 	{
            diffuseColor 0.11372549019607843 0.11372549019607843 0.11372549019607843
            specularColor 0.058823529411764705 0.058823529411764705 0.058823529411764705
            ambientIntensity 0.1137
            transparency 0.0
            shininess 0.5
        }
    }
    geometry IndexedFaceSet {
        ccw TRUE
        solid FALSE
        coord DEF co Coordinate {
            point [
                6.624 0.629 3.3032, 6.624 0.629 2.2443, 6.624 1.0821 3.3032, 6.624 1.3524 0.7441, 6.624 1.3524 3.3032, 6.624 0.3144 2.2443, 6.624 0.3144 1.3666, 6.624 -1.4114 0.7441, 6.624 -0.0223 1.3666, 6.624 -0.0223 2.2443, 6.624 -0.3425 2.2443, 6.624 -0.3425 3.3032, 6.624 -0.788 3.3032, 6.624 -1.4114 3.3032, 6.0335 0.629 3.3032, 6.0335 1.0821 3.3032, 6.0335 -0.3425 3.3032, 6.0335 -0.788 3.3032, -6.624 -0.788 3.3032, -6.0335 -0.788 3.3032, -6.624 -0.3425 3.3032, -6.0335 -0.3425 3.3032, -6.0335 1.0821 3.8937, -6.0335 1.3524 3.8937, -6.624 1.0821 3.3032, -6.624 1.3524 3.3032, 6.0335 1.0821 3.8937, 6.0335 1.3524 3.8937, 6.3483 0.4825 0.3858, 6.362 0.4778 0.3858, 6.2904 0.4778 0.3858, 6.5251 0.4773 0.3858, 6.6185 0.4773 0.3858, 6.7224 0.0107 0.3858, 6.3864 0.4726 0.3858, 6.3962 0.4722 0.3858, 6.2904 0.0107 0.3858, 6.4273 0.4778 0.3858, 6.3707 0.4748 0.3858, 6.7224 0.4778 0.3858, 6.6185 0.4778 0.3858, 6.7224 0.7047 0.3858, 6.6185 0.6741 0.3858, 6.6008 0.6741 0.3858, 6.5251 0.4778 0.3858, 6.4408 0.4802 0.3858, 6.46 0.4907 0.3858, 6.4412 0.6482 0.3858, 6.4717 0.6207 0.3858, 6.3976 0.659 0.3858, 6.4844 0.5834 0.3858, 6.4847 0.5755 0.3858, 6.4745 0.5349 0.3858, 6.4474 0.5065 0.3858, 6.4087 0.4931 0.3858, 6.4712 0.5 0.3858, 6.4774 0.5067 0.3858, 6.5251 0.4975 0.3858, 6.4964 0.5394 0.3858, 6.6008 0.4975 0.3858, 6.5024 0.5768 0.3858, 6.4897 0.6271 0.3858, 6.456 0.6626 0.3858, 6.3106 0.5135 0.3858, 6.3106 0.638 0.3858, 6.326 0.5252 0.3858, 6.326 0.6262 0.3858, 6.3574 0.5008 0.3858, 6.3579 0.6509 0.3858, 6.3963 0.4924 0.3858, 6.3765 0.6569 0.3858, 6.3894 0.6587 0.3858, 6.4052 0.6789 0.3858, 6.3965 0.6792 0.3858, 6.2904 0.7047 0.3858, 6.3484 0.6691 0.3858, 6.3283 0.6566 0.3858, 6.3168 0.6457 0.3858, 6.1238 0.4773 0.3858, 6.0628 0.4773 0.3858, 5.9497 0.0107 0.3858, 6.0523 0.4778 0.3858, 5.9623 0.5732 0.3858, 5.9734 0.5237 0.3858, 5.9497 0.4778 0.3858, 6.0019 0.4911 0.3858, 6.0415 0.4784 0.3858, 6.1238 0.4778 0.3858, 6.1238 0.6741 0.3858, 6.1591 0.6539 0.3858, 6.1591 0.6741 0.3858, 6.0841 0.6741 0.3858, 6.0525 0.6729 0.3858, 5.9497 0.7047 0.3858, 6.0216 0.667 0.3858, 5.9861 0.6432 0.3858, 5.966 0.6042 0.3858, 6.1591 0.5732 0.3858, 6.1591 0.5934 0.3858, 6.2525 0.5934 0.3858, 6.2525 0.6539 0.3858, 6.2525 0.5732 0.3858, 6.2525 0.4975 0.3858, 6.1591 0.4975 0.3858, 6.1591 0.4778 0.3858, 6.1591 0.4773 0.3858, 6.2702 0.4773 0.3858, 6.2702 0.4778 0.3858, 6.2702 0.6741 0.3858, 5.9371 0.4773 0.3858, 5.9368 0.4778 0.3858, 5.8412 0.6741 0.3858, 5.7506 0.4778 0.3858, 5.5956 0.4778 0.3858, 5.7503 0.4773 0.3858, 5.9178 0.4773 0.3858, 5.7986 0.5404 0.3858, 5.8878 0.5404 0.3858, 5.9175 0.4778 0.3858, 3.5433 0.7047 0.3858, 3.5433 0.8508 0.3858, 3.8976 0.8508 0.3858, 3.8976 1.2736 0.3858, 4.3701 0.8508 0.3858, 4.3701 1.2736 0.3858, 4.2598 0.4784 0.3858, 4.2598 0.7047 0.3858, 4.7244 0.7047 0.3858, 4.2598 0.7303 0.3858, 1.1811 0.4778 0.3858, 1.1811 0.7047 0.3858, 1.6457 0.7047 0.3858, 1.6457 0.7303 0.3858, 1.5354 0.8508 0.3858, 1.5354 1.2736 0.3858, 2.0079 0.8508 0.3858, 2.0079 1.2736 0.3858, 1.8976 0.4784 0.3858, 1.8976 0.7047 0.3858, 2.3622 0.7047 0.3858, 1.8976 0.7303 0.3858, -0.7165 0.7047 0.3858, -0.7165 0.4784 0.3858, -1.1811 0.4778 0.3858, -0.4646 0.4784 0.3858, -1.1811 0.7047 0.3858, -1.1811 0.8508 0.3858, -0.8268 0.8508 0.3858, -0.8268 1.2736 0.3858, -0.3543 1.2736 0.3858, -0.3543 0.8508 0.3858, 0.3543 0.8508 0.3858, 0.3543 1.2736 0.3858, 0.8268 0.8508 0.3858, 0.8268 1.2736 0.3858, -0.4646 0.7303 0.3858, 0.4646 0.7303 0.3858, -0.4646 0.7047 0.3858, 0.4646 0.7047 0.3858, 0.4646 0.4784 0.3858, 0.7165 0.4784 0.3858, 0.7165 0.7047 0.3858, 0.7165 0.7303 0.3858, -2.8268 0.4784 0.3858, -2.8268 0.7047 0.3858, -2.3622 0.7047 0.3858, -2.8268 0.7303 0.3858, -3.5433 0.7047 0.3858, -3.5433 0.8508 0.3858, -3.189 0.8508 0.3858, -3.189 1.2736 0.3858, -2.7165 1.2736 0.3858, -2.7165 0.8508 0.3858, -6.0817 0.4778 0.3858, -6.0817 0.7047 0.3858, -5.4409 0.7047 0.3858, -5.4409 0.7303 0.3858, -6.0817 0.8508 0.3858, -5.5512 0.8508 0.3858, -5.189 0.4784 0.3858, -5.189 0.7047 0.3858, -4.7244 0.7047 0.3858, -5.189 0.7303 0.3858, -5.5512 1.2736 0.3858, -5.0787 1.2736 0.3858, -5.0787 0.8508 0.3858, 6.7224 0.8508 0.3858, 6.2904 0.8508 0.3858, 5.9497 0.8508 0.3858, 5.5956 0.7047 0.3858, 5.5956 0.8508 0.3858, 5.0787 1.2736 0.3858, 5.5512 1.2736 0.3858, 5.0787 0.8508 0.3858, 5.5512 0.8508 0.3858, 4.0079 0.7303 0.3858, 4.7244 0.8508 0.3858, 5.189 0.7303 0.3858, 5.4409 0.7303 0.3858, 2.7165 1.2736 0.3858, 3.189 1.2736 0.3858, 2.7165 0.8508 0.3858, 3.189 0.8508 0.3858, -0.7165 0.7303 0.3858, 1.1811 0.8508 0.3858, 2.3622 0.8508 0.3858, 2.8268 0.7303 0.3858, 3.0787 0.7303 0.3858, -2.0079 1.2736 0.3858, -1.5354 1.2736 0.3858, -2.0079 0.8508 0.3858, -1.5354 0.8508 0.3858, -3.0787 0.7303 0.3858, -2.3622 0.8508 0.3858, -1.8976 0.7303 0.3858, -1.6457 0.7303 0.3858, -4.3701 1.2736 0.3858, -3.8976 1.2736 0.3858, -4.3701 0.8508 0.3858, -3.8976 0.8508 0.3858, -4.7244 0.8508 0.3858, -4.2598 0.7303 0.3858, -4.0079 0.7303 0.3858, -6.7224 0.0107 0.3858, -6.0817 0.0107 0.3858, -6.7224 -1.2165 0.3858, -6.0817 -1.2165 0.3858, -5.0787 -1.4114 0.3858, -5.5512 -1.4114 0.3858, -5.0787 -1.2165 0.3858, -5.5512 -1.2165 0.3858, -5.4409 -0.4508 0.3858, -5.4409 -0.7028 0.3858, -5.189 -0.4508 0.3858, -4.7244 0.0107 0.3858, -5.189 -0.7028 0.3858, -4.7244 -1.2165 0.3858, -3.8976 -1.2165 0.3858, -4.2598 -0.7028 0.3858, -3.5433 -1.2165 0.3858, -4.0079 -0.7028 0.3858, -3.8976 -1.4114 0.3858, -4.3701 -1.4114 0.3858, -4.3701 -1.2165 0.3858, -3.5433 0.0107 0.3858, -4.0079 -0.4508 0.3858, -4.2598 -0.4508 0.3858, -3.0787 -0.7028 0.3858, -2.8268 -0.7028 0.3858, -2.3622 -1.2165 0.3858, -3.189 -1.4114 0.3858, -3.189 -1.2165 0.3858, -2.7165 -1.4114 0.3858, -2.7165 -1.2165 0.3858, -2.3622 0.0107 0.3858, -2.8268 -0.4508 0.3858, -3.0787 -0.4508 0.3858, -1.8976 -0.7028 0.3858, -1.6457 -0.7028 0.3858, -1.1811 -1.2165 0.3858, -2.0079 -1.4114 0.3858, -2.0079 -1.2165 0.3858, -1.5354 -1.4114 0.3858, -1.5354 -1.2165 0.3858, -1.1811 0.0107 0.3858, -1.6457 -0.4508 0.3858, -1.8976 -0.4508 0.3858, 0.7165 -0.7028 0.3858, 0.7165 -0.4508 0.3858, 1.1811 0.0107 0.3858, 1.1811 -1.2165 0.3858, 0.8268 -1.2165 0.3858, -0.7165 -0.7028 0.3858, -0.4646 -0.7028 0.3858, 0.3543 -1.2165 0.3858, 0.8268 -1.4114 0.3858, 0.3543 -1.4114 0.3858, -0.4646 -0.4508 0.3858, 0.4646 -0.4508 0.3858, 0.4646 -0.7028 0.3858, -0.8268 -1.4114 0.3858, -0.8268 -1.2165 0.3858, -0.3543 -1.4114 0.3858, -0.3543 -1.2165 0.3858, -0.7165 -0.4508 0.3858, 2.0079 -1.4114 0.3858, 1.5354 -1.4114 0.3858, 2.0079 -1.2165 0.3858, 1.5354 -1.2165 0.3858, 2.7165 -1.4114 0.3858, 2.7165 -1.2165 0.3858, 3.189 -1.4114 0.3858, 3.189 -1.2165 0.3858, 2.8268 -0.4508 0.3858, 2.3622 0.0107 0.3858, 3.0787 -0.4508 0.3858, 3.5433 0.0107 0.3858, 3.0787 -0.7028 0.3858, 3.5433 -1.2165 0.3858, 2.8268 -0.7028 0.3858, 2.3622 -1.2165 0.3858, 1.8976 -0.7028 0.3858, 1.6457 -0.7028 0.3858, 1.6457 -0.4508 0.3858, 1.8976 -0.4508 0.3858, 4.3701 -1.4114 0.3858, 3.8976 -1.4114 0.3858, 4.3701 -1.2165 0.3858, 3.8976 -1.2165 0.3858, 5.189 -0.7028 0.3858, 5.4409 -0.7028 0.3858, 5.5956 -1.2165 0.3858, 5.0787 -1.4114 0.3858, 5.0787 -1.2165 0.3858, 5.5512 -1.4114 0.3858, 5.5512 -1.2165 0.3858, 5.189 -0.4508 0.3858, 4.7244 0.0107 0.3858, 5.4409 -0.4508 0.3858, 5.5956 0.0107 0.3858, 4.7244 -1.2165 0.3858, 4.2598 -0.7028 0.3858, 4.0079 -0.7028 0.3858, 4.0079 -0.4508 0.3858, 4.2598 -0.4508 0.3858, 5.9497 -1.2165 0.3858, 6.2904 -1.2165 0.3858, 6.7224 -1.2165 0.3858, -4.2598 0.7047 0.3858, -4.7244 0.4778 0.3858, -5.4409 0.4784 0.3858, -4.0079 0.7047 0.3858, -4.0079 0.4784 0.3858, -3.0787 0.7047 0.3858, -3.5433 0.4778 0.3858, -4.2598 0.4784 0.3858, -1.8976 0.7047 0.3858, -2.3622 0.4778 0.3858, -3.0787 0.4784 0.3858, -1.6457 0.7047 0.3858, -1.6457 0.4784 0.3858, -1.8976 0.4784 0.3858, 2.8268 0.7047 0.3858, 2.3622 0.4778 0.3858, 1.6457 0.4784 0.3858, 3.0787 0.7047 0.3858, 3.0787 0.4784 0.3858, 4.0079 0.7047 0.3858, 3.5433 0.4778 0.3858, 2.8268 0.4784 0.3858, 5.189 0.7047 0.3858, 4.7244 0.4778 0.3858, 4.0079 0.4784 0.3858, 5.4409 0.7047 0.3858, 5.4409 0.4784 0.3858, 5.8437 0.6741 0.3858, 5.189 0.4784 0.3858, -6.7224 0.8508 0.3858, -6.7224 0.7047 0.3858, -6.7224 0.4778 0.3858, 5.7698 0.4778 0.3858, 5.7695 0.4773 0.3858, 5.189 0.7303 1.1378, 4.7638 1.1555 1.1378, 5.189 0.4784 1.1378, 4.7638 0.0532 1.1378, 5.4409 0.4784 1.1378, 5.8661 0.0532 1.1378, 5.4409 0.7303 1.1378, 5.8661 1.1555 1.1378, 4.0079 0.7303 1.1378, 3.5827 1.1555 1.1378, 4.0079 0.4784 1.1378, 3.5827 0.0532 1.1378, 4.2598 0.4784 1.1378, 4.685 0.0532 1.1378, 4.2598 0.7303 1.1378, 4.685 1.1555 1.1378, 2.8268 0.7303 1.1378, 2.4016 1.1555 1.1378, 2.8268 0.4784 1.1378, 2.4016 0.0532 1.1378, 3.0787 0.4784 1.1378, 3.5039 0.0532 1.1378, 3.0787 0.7303 1.1378, 3.5039 1.1555 1.1378, 1.6457 0.4784 1.1378, 1.5354 0.0532 1.1378, 1.8976 0.4784 1.1378, 2.3228 0.0532 1.1378, 1.8976 0.7303 1.1378, 2.3228 1.1555 1.1378, 1.6457 0.7303 1.1378, 1.2205 1.1555 1.1378, 1.2205 0.3681 1.1378, 0.4646 0.4784 1.1378, 0.3543 0.0532 1.1378, 0.7165 0.4784 1.1378, 1.1417 0.0532 1.1378, 0.7165 0.7303 1.1378, 1.1417 1.1555 1.1378, 0.4646 0.7303 1.1378, 0.0394 1.1555 1.1378, 0.0394 0.3681 1.1378, -0.7165 0.4784 1.1378, -0.8268 0.0532 1.1378, -0.4646 0.4784 1.1378, -0.0394 0.0532 1.1378, -0.4646 0.7303 1.1378, -0.0394 1.1555 1.1378, -0.7165 0.7303 1.1378, -1.1417 1.1555 1.1378, -1.1417 0.3681 1.1378, -2.3228 0.0532 1.1378, -1.5354 0.0532 1.1378, -1.6457 0.4784 1.1378, -1.2205 0.3681 1.1378, -1.6457 0.7303 1.1378, -1.2205 1.1555 1.1378, -1.8976 0.7303 1.1378, -2.3228 1.1555 1.1378, -1.8976 0.4784 1.1378, -3.5039 0.0532 1.1378, -2.7165 0.0532 1.1378, -2.8268 0.4784 1.1378, -2.4016 0.3681 1.1378, -2.8268 0.7303 1.1378, -2.4016 1.1555 1.1378, -3.0787 0.7303 1.1378, -3.5039 1.1555 1.1378, -3.0787 0.4784 1.1378, -4.2598 0.4784 1.1378, -4.3701 0.0532 1.1378, -4.0079 0.4784 1.1378, -3.5827 0.0532 1.1378, -4.0079 0.7303 1.1378, -3.5827 1.1555 1.1378, -4.2598 0.7303 1.1378, -4.685 1.1555 1.1378, -4.685 0.3681 1.1378, -4.3701 -1.4114 -0.0079, -5.0787 -1.4114 -0.0079, -4.3701 -1.2165 -0.0079, -5.0787 -1.2165 -0.0079, -3.8976 -1.2165 -0.0079, -3.189 -1.2165 -0.0079, -3.8976 -1.4114 -0.0079, -3.189 -1.4114 -0.0079, -2.7165 -1.2165 -0.0079, -2.0079 -1.2165 -0.0079, -2.7165 -1.4114 -0.0079, -2.0079 -1.4114 -0.0079, -1.5354 -1.2165 -0.0079, -0.8268 -1.2165 -0.0079, -1.5354 -1.4114 -0.0079, -0.8268 -1.4114 -0.0079, -0.3543 -1.2165 -0.0079, 0.3543 -1.2165 -0.0079, -0.3543 -1.4114 -0.0079, 0.3543 -1.4114 -0.0079, 0.8268 -1.2165 -0.0079, 1.5354 -1.2165 -0.0079, 0.8268 -1.4114 -0.0079, 1.5354 -1.4114 -0.0079, 2.0079 -1.2165 -0.0079, 2.7165 -1.2165 -0.0079, 2.0079 -1.4114 -0.0079, 2.7165 -1.4114 -0.0079, 3.189 -1.2165 -0.0079, 3.8976 -1.2165 -0.0079, 3.189 -1.4114 -0.0079, 3.8976 -1.4114 -0.0079, 4.3701 -1.2165 -0.0079, 5.0787 -1.2165 -0.0079, 4.3701 -1.4114 -0.0079, 5.0787 -1.4114 -0.0079, -4.3701 0.8508 -0.0079, -5.0787 0.8508 -0.0079, -4.3701 1.2736 -0.0079, -5.0787 1.2736 -0.0079, -3.8976 1.2736 -0.0079, -3.189 1.2736 -0.0079, -3.8976 0.8508 -0.0079, -3.189 0.8508 -0.0079, -2.7165 1.2736 -0.0079, -2.0079 1.2736 -0.0079, -2.7165 0.8508 -0.0079, -2.0079 0.8508 -0.0079, -1.5354 1.2736 -0.0079, -0.8268 1.2736 -0.0079, -1.5354 0.8508 -0.0079, -0.8268 0.8508 -0.0079, -0.3543 1.2736 -0.0079, 0.3543 1.2736 -0.0079, -0.3543 0.8508 -0.0079, 0.3543 0.8508 -0.0079, 0.8268 1.2736 -0.0079, 1.5354 1.2736 -0.0079, 0.8268 0.8508 -0.0079, 1.5354 0.8508 -0.0079, 2.0079 1.2736 -0.0079, 2.7165 1.2736 -0.0079, 2.0079 0.8508 -0.0079, 2.7165 0.8508 -0.0079, 3.189 1.2736 -0.0079, 3.8976 1.2736 -0.0079, 3.189 0.8508 -0.0079, 3.8976 0.8508 -0.0079, 4.3701 1.2736 -0.0079, 5.0787 1.2736 -0.0079, 4.3701 0.8508 -0.0079, 5.0787 0.8508 -0.0079, -5.4409 0.4784 1.1378, -5.5512 0.0532 1.1378, -5.189 0.4784 1.1378, -4.7638 0.0532 1.1378, -5.189 0.7303 1.1378, -4.7638 1.1555 1.1378, -5.4409 0.7303 1.1378, -5.8661 1.1555 1.1378, -5.8661 0.3681 1.1378, -6.3681 -1.5492 -0.0079, -6.7224 -1.5492 -0.0079, -6.3681 -1.4114 -0.0079, -6.7224 -1.2165 -0.0079, -5.5512 -1.4114 -0.0079, -5.5512 -1.2165 -0.0079, -6.3744 0.9418 -0.0079, -6.3701 0.9744 -0.0079, -5.5512 0.8508 -0.0079, -6.6178 0.9418 -0.0079, -6.6052 0.9114 -0.0079, -6.7224 0.8508 -0.0079, -6.5851 0.8853 -0.0079, -5.5512 1.2736 -0.0079, -6.7224 1.3524 -0.0079, -6.6178 1.007 -0.0079, -6.622 0.9744 -0.0079, -6.4331 0.8653 -0.0079, -6.4635 0.8527 -0.0079, -6.4716 0.8508 -0.0079, -6.407 0.8853 -0.0079, -6.387 0.9114 -0.0079, -6.5591 1.0835 -0.0079, -6.5851 1.0635 -0.0079, -6.6052 1.0374 -0.0079, -6.5591 0.8653 -0.0079, -6.5287 0.8527 -0.0079, -6.5205 0.8508 -0.0079, -6.3744 1.007 -0.0079, -6.387 1.0374 -0.0079, -6.25 1.2736 -0.0079, -6.407 1.0635 -0.0079, -6.4331 1.0835 -0.0079, -6.4635 1.0961 -0.0079, -6.25 1.3524 -0.0079, -6.4961 1.1004 -0.0079, -6.5287 1.0961 -0.0079, -6.4961 0.8508 -0.0079, 5.5512 -1.4114 -0.0079, 5.5512 -1.2165 -0.0079, 6.3681 -1.4114 -0.0079, 6.7224 -1.2165 -0.0079, 6.3681 -1.5492 -0.0079, 6.7224 -1.5492 -0.0079, -6.624 -1.4114 3.3032, -6.624 -1.4114 0.7441, -6.3681 -1.4114 0.7441, -4.4193 -1.4114 2.4979, -4.4193 -1.4114 0.6177, -4.7244 -1.4114 3.8937, -5.9498 -1.4114 3.8937, -4.813 -1.4114 2.4979, -6.0335 -1.4114 3.8937, -4.813 -1.4114 0.6177, 0.0 -1.4114 3.8937, -2.3622 -1.4114 3.8937, -3.5433 -1.4114 3.8937, 1.1811 -1.4114 3.8937, 2.3622 -1.4114 3.8937, 3.5433 -1.4114 3.8937, 4.4193 -1.4114 2.4979, 4.813 -1.4114 0.6177, 4.813 -1.4114 2.4979, 6.3681 -1.4114 0.7441, 4.7244 -1.4114 3.8937, 6.0335 -1.4114 3.8937, 4.4193 -1.4114 0.6177, 6.7224 -1.5492 0.7441, 6.7224 0.8508 -0.0079, 6.7224 1.3524 -0.0079, 6.7224 1.3524 0.7441, -6.7224 1.3524 0.7441, -6.7224 -1.5492 0.7441, -6.624 1.3524 0.7441, -6.25 1.3524 0.7008, -5.9498 1.3524 3.8937, -4.7244 1.3524 3.8937, -3.5433 1.3524 3.8937, -2.3622 1.3524 3.8937, 6.25 1.3524 0.7008, -0.3937 1.3524 2.7284, -0.3937 1.3524 3.7789, 0.0 1.3524 3.8937, 0.3937 1.3524 3.7789, 1.1811 1.3524 3.8937, 0.3937 1.3524 2.7284, 2.3622 1.3524 3.8937, 3.5433 1.3524 3.8937, 4.7244 1.3524 3.8937, 6.25 1.3524 -0.0079, -6.0335 -0.788 3.8937, -6.0335 -1.2697 3.8937, -5.9498 -1.2697 3.8937, -1.1417 1.1555 3.8937, -0.0394 1.1555 3.8937, 3.5827 1.1555 3.8937, 4.685 1.1555 3.8937, 5.8661 0.0532 3.8937, 6.0335 0.0138 3.8937, 4.7638 0.0532 3.8937, 4.7244 0.0138 3.8937, 4.7638 1.1555 3.8937, 5.8661 1.1555 3.8937, 4.685 0.0532 3.8937, 3.5827 0.0532 3.8937, 3.5433 0.0138 3.8937, 2.4016 1.1555 3.8937, 2.3622 0.0138 3.8937, 3.5039 1.1555 3.8937, 3.5039 0.0532 3.8937, 2.4016 0.0532 3.8937, 2.3228 0.0532 3.8937, 2.3228 1.1555 3.8937, 1.2205 1.1555 3.8937, 1.2205 0.3681 3.8937, 1.1811 0.0138 3.8937, 1.5354 0.0532 3.8937, 1.1417 1.1555 3.8937, 1.1417 0.0532 3.8937, 0.3543 0.0532 3.8937, 0.0 0.0138 3.8937, 0.0394 0.3681 3.8937, 0.0394 1.1555 3.8937, -1.5354 0.0532 3.8937, -2.3228 0.0532 3.8937, -2.3622 0.0138 3.8937, -2.3228 1.1555 3.8937, -1.2205 1.1555 3.8937, -0.0394 0.0532 3.8937, -0.8268 0.0532 3.8937, -3.5039 1.1555 3.8937, -3.5433 0.0138 3.8937, -2.4016 1.1555 3.8937, -2.4016 0.3681 3.8937, -2.7165 0.0532 3.8937, -3.5039 0.0532 3.8937, -3.5827 1.1555 3.8937, -3.5827 0.0532 3.8937, -4.3701 0.0532 3.8937, -4.7244 0.0138 3.8937, -4.685 0.3681 3.8937, -4.685 1.1555 3.8937, -4.7638 0.0532 3.8937, -4.7638 1.1555 3.8937, -5.8661 1.1555 3.8937, -5.8661 0.3681 3.8937, -5.9498 0.0138 3.8937, -5.5512 0.0532 3.8937, -6.0335 0.0138 3.8937, 5.8661 -1.1279 3.8937, 4.7638 -1.1279 3.8937, 4.7244 -1.2697 3.8937, 4.7638 -0.0256 3.8937, 5.8661 -0.0256 3.8937, 6.0335 -0.788 3.8937, 6.0335 -1.2697 3.8937, 4.685 -0.0256 3.8937, 4.685 -1.1279 3.8937, 3.5827 -1.1279 3.8937, 3.5433 -1.2697 3.8937, 3.5827 -0.0256 3.8937, 3.5039 -0.0256 3.8937, 3.5039 -1.1279 3.8937, 2.4016 -0.0256 3.8937, 2.4016 -1.1279 3.8937, 2.3622 -1.2697 3.8937, 1.2205 -1.1279 3.8937, 1.2205 -0.0256 3.8937, 1.1811 -1.2697 3.8937, 2.0079 -1.1279 3.8937, 2.3228 -0.813 3.8937, 2.3228 -0.0256 3.8937, 1.1417 -1.1279 3.8937, 0.0 -1.2697 3.8937, 0.3543 -1.1279 3.8937, 0.0394 -0.813 3.8937, 0.0394 -0.0256 3.8937, 1.1417 -0.0256 3.8937, -1.1417 -0.0256 3.8937, -0.0394 -0.0256 3.8937, -0.0394 -1.1279 3.8937, -1.1417 -1.1279 3.8937, -2.3622 -1.2697 3.8937, -1.1417 0.3681 3.8937, -1.2205 0.3681 3.8937, -1.2205 -0.0256 3.8937, -1.2205 -0.813 3.8937, -1.5354 -1.1279 3.8937, -2.3228 -1.1279 3.8937, -2.3228 -0.0256 3.8937, -3.5039 -0.0256 3.8937, -2.4016 -0.0256 3.8937, -2.4016 -0.813 3.8937, -2.7165 -1.1279 3.8937, -3.5433 -1.2697 3.8937, -3.5039 -1.1279 3.8937, -4.685 -0.0256 3.8937, -3.5827 -0.0256 3.8937, -3.5827 -0.813 3.8937, -3.8976 -1.1279 3.8937, -4.7244 -1.2697 3.8937, -4.685 -1.1279 3.8937, -5.8661 -1.1279 3.8937, -5.8661 -0.0256 3.8937, -4.7638 -0.0256 3.8937, -4.7638 -0.813 3.8937, -5.0787 -1.1279 3.8937, 6.3744 0.9418 -0.0079, 6.387 0.9114 -0.0079, 5.5512 0.8508 -0.0079, 6.407 0.8853 -0.0079, 5.5512 1.2736 -0.0079, 6.3744 1.007 -0.0079, 6.3701 0.9744 -0.0079, 6.5205 0.8508 -0.0079, 6.5287 0.8527 -0.0079, 6.5591 0.8653 -0.0079, 6.5851 0.8853 -0.0079, 6.6052 0.9114 -0.0079, 6.6178 0.9418 -0.0079, 6.622 0.9744 -0.0079, 6.6178 1.007 -0.0079, 6.6052 1.0374 -0.0079, 6.5591 1.0835 -0.0079, 6.5287 1.0961 -0.0079, 6.25 1.2736 -0.0079, 6.4961 1.1004 -0.0079, 6.4635 1.0961 -0.0079, 6.4331 0.8653 -0.0079, 6.4635 0.8527 -0.0079, 6.4716 0.8508 -0.0079, 6.5851 1.0635 -0.0079, 6.4331 1.0835 -0.0079, 6.407 1.0635 -0.0079, 6.387 1.0374 -0.0079, -0.3937 1.9035 3.1607, 0.3937 1.9035 3.1607, -0.3937 1.9035 2.9204, 0.3937 1.9035 2.9204, -0.3937 1.6644 2.9204, 0.3937 1.6644 2.9204, -0.3937 1.5827 2.9059, 0.3937 1.5827 2.9059, -0.3937 1.5111 2.8639, 0.3937 1.5111 2.8639, 6.3681 -1.5492 0.7441, -6.624 -0.3425 2.2443, -6.624 -0.0223 2.2443, -6.624 -0.0223 1.3666, -6.624 0.3144 1.3666, -6.624 0.3144 2.2443, -6.624 0.629 2.2443, -6.624 0.629 3.3032, -6.3681 -1.5492 0.7441, -4.4193 -1.5492 2.4979, -4.4193 -1.5492 0.6177, -4.813 -1.5492 2.4979, -4.813 -1.5492 0.6177, 4.4193 -1.5492 0.6177, 4.4193 -1.5492 2.4979, 4.813 -1.5492 0.6177, 4.813 -1.5492 2.4979, -5.8661 -1.1279 1.1378, -5.8661 -0.0256 1.1378, -4.7638 -0.0256 1.1378, -4.7638 -0.813 1.1378, -5.0787 -1.1279 1.1378, -5.189 -0.7028 1.1378, -5.189 -0.4508 1.1378, -5.4409 -0.4508 1.1378, -5.4409 -0.7028 1.1378, 6.4961 0.8508 -0.0079, -6.25 1.2736 0.7008, 6.25 1.2736 0.7008
            ]
        }
        coordIndex [
            0,1,2,-1,2,1,3,-1,2,3,4,-1,1,5,3,-1,3,5,6,-1,3,6,7,-1,6,8,7,-1,7,8,9,-1,7,9,10,-1,10,11,7,-1,7,11,12,-1,7,12,13,-1,0,2,14,-1,14,2,15,-1,16,17,11,-1,11,17,12,-1,18,19,20,-1,20,19,21,-1,22,23,24,-1,24,23,25,-1,2,4,26,-1,26,4,27,-1,28,29,30,-1,31,32,33,-1,34,35,36,-1,36,35,37,-1,30,29,36,-1,36,29,38,-1,36,38,34,-1,33,32,39,-1,39,32,40,-1,39,40,41,-1,41,40,42,-1,41,42,43,-1,33,36,31,-1,31,36,37,-1,31,37,44,-1,44,37,45,-1,44,45,46,-1,47,48,49,-1,49,48,50,-1,49,50,51,-1,51,52,49,-1,49,52,53,-1,49,53,54,-1,46,55,44,-1,44,55,56,-1,44,56,57,-1,57,56,58,-1,57,58,59,-1,59,58,60,-1,59,60,43,-1,43,60,61,-1,43,61,62,-1,63,64,65,-1,65,64,66,-1,65,66,67,-1,67,66,68,-1,67,68,69,-1,69,68,70,-1,69,70,54,-1,54,70,71,-1,54,71,49,-1,72,73,74,-1,74,73,75,-1,74,75,76,-1,76,77,74,-1,74,77,64,-1,74,64,30,-1,30,64,63,-1,30,63,28,-1,78,36,79,-1,79,36,80,-1,79,80,81,-1,82,83,84,-1,84,83,85,-1,84,85,86,-1,87,88,89,-1,89,88,90,-1,91,92,93,-1,92,94,93,-1,93,94,95,-1,93,95,96,-1,97,87,98,-1,98,87,89,-1,98,89,99,-1,99,89,100,-1,91,93,88,-1,88,93,74,-1,88,74,90,-1,101,102,97,-1,97,102,103,-1,97,103,87,-1,87,103,104,-1,87,104,78,-1,78,104,105,-1,78,105,36,-1,36,105,106,-1,36,106,30,-1,30,106,107,-1,30,107,74,-1,74,107,108,-1,74,108,90,-1,109,110,84,-1,84,110,93,-1,84,93,82,-1,82,93,96,-1,111,112,113,-1,113,112,114,-1,86,81,84,-1,84,81,80,-1,84,80,109,-1,109,80,115,-1,116,117,118,-1,119,120,121,-1,121,122,123,-1,123,122,124,-1,125,126,127,-1,127,126,128,-1,129,130,131,-1,131,130,132,-1,133,134,135,-1,135,134,136,-1,137,138,139,-1,139,138,140,-1,141,142,143,-1,143,142,144,-1,143,144,129,-1,145,146,147,-1,148,149,147,-1,147,149,150,-1,151,152,153,-1,153,152,154,-1,155,156,157,-1,157,156,158,-1,157,158,144,-1,144,158,159,-1,144,159,129,-1,129,159,160,-1,129,160,130,-1,130,160,161,-1,130,161,162,-1,163,164,165,-1,165,164,166,-1,167,168,169,-1,170,171,169,-1,169,171,172,-1,173,174,175,-1,175,174,176,-1,174,177,178,-1,179,180,181,-1,181,180,182,-1,183,184,178,-1,178,184,185,-1,62,72,43,-1,43,72,74,-1,43,74,41,-1,41,74,186,-1,186,74,187,-1,187,74,93,-1,187,93,188,-1,188,93,189,-1,188,189,190,-1,191,192,193,-1,193,192,194,-1,119,121,195,-1,195,121,123,-1,195,123,128,-1,128,123,196,-1,128,196,127,-1,127,196,193,-1,127,193,197,-1,197,193,194,-1,197,194,198,-1,199,200,201,-1,201,200,202,-1,145,147,203,-1,203,147,150,-1,203,150,155,-1,155,150,151,-1,155,151,156,-1,156,151,153,-1,156,153,162,-1,162,153,204,-1,162,204,130,-1,130,204,133,-1,130,133,132,-1,132,133,135,-1,132,135,140,-1,140,135,205,-1,140,205,139,-1,139,205,201,-1,139,201,206,-1,206,201,202,-1,206,202,207,-1,208,209,210,-1,210,209,211,-1,167,169,212,-1,212,169,172,-1,212,172,166,-1,166,172,213,-1,166,213,165,-1,165,213,210,-1,165,210,214,-1,214,210,211,-1,214,211,215,-1,216,217,218,-1,218,217,219,-1,174,178,176,-1,176,178,185,-1,176,185,182,-1,182,185,220,-1,182,220,181,-1,181,220,218,-1,181,218,221,-1,221,218,219,-1,221,219,222,-1,223,224,225,-1,225,224,226,-1,227,228,229,-1,229,228,230,-1,224,231,232,-1,231,224,233,-1,233,224,234,-1,233,234,235,-1,235,234,236,-1,235,236,232,-1,232,236,229,-1,232,229,224,-1,224,229,230,-1,224,230,226,-1,237,238,239,-1,239,238,240,-1,241,242,243,-1,244,245,234,-1,234,245,246,-1,234,246,236,-1,236,246,238,-1,236,238,243,-1,243,238,237,-1,243,237,241,-1,247,248,249,-1,250,251,252,-1,252,251,253,-1,254,255,244,-1,244,255,256,-1,249,253,247,-1,247,253,251,-1,247,251,256,-1,256,251,239,-1,256,239,244,-1,244,239,240,-1,244,240,245,-1,257,258,259,-1,260,261,262,-1,262,261,263,-1,264,265,254,-1,254,265,266,-1,259,263,257,-1,257,263,261,-1,257,261,266,-1,266,261,249,-1,266,249,254,-1,254,249,248,-1,254,248,255,-1,267,268,269,-1,269,270,271,-1,272,273,274,-1,275,276,271,-1,271,276,274,-1,277,278,279,-1,269,271,267,-1,267,271,274,-1,267,274,279,-1,279,274,273,-1,279,273,277,-1,280,281,282,-1,282,281,283,-1,284,264,277,-1,277,264,269,-1,277,269,278,-1,278,269,268,-1,274,283,272,-1,272,283,281,-1,272,281,284,-1,284,281,259,-1,284,259,264,-1,264,259,258,-1,264,258,265,-1,285,286,287,-1,287,286,288,-1,289,290,291,-1,291,290,292,-1,293,294,295,-1,295,294,296,-1,295,296,297,-1,297,296,298,-1,297,298,299,-1,298,292,299,-1,299,292,290,-1,299,290,293,-1,293,290,300,-1,293,300,294,-1,294,300,287,-1,294,287,301,-1,301,287,288,-1,301,288,302,-1,302,288,270,-1,302,270,303,-1,303,270,269,-1,303,269,304,-1,304,269,294,-1,304,294,301,-1,305,306,307,-1,307,306,308,-1,309,310,311,-1,312,313,314,-1,314,313,315,-1,316,317,318,-1,318,317,319,-1,318,319,310,-1,311,315,309,-1,309,315,313,-1,309,313,316,-1,316,313,320,-1,316,320,317,-1,317,320,307,-1,317,307,321,-1,321,307,308,-1,321,308,322,-1,322,308,298,-1,322,298,323,-1,323,298,296,-1,323,296,324,-1,324,296,317,-1,324,317,321,-1,310,319,311,-1,311,319,80,-1,311,80,325,-1,325,80,36,-1,325,36,326,-1,326,36,33,-1,326,33,327,-1,221,328,181,-1,181,328,329,-1,181,329,179,-1,179,329,173,-1,179,173,330,-1,330,173,175,-1,219,168,222,-1,222,168,167,-1,222,167,331,-1,331,167,332,-1,212,333,167,-1,167,333,334,-1,167,334,332,-1,332,334,329,-1,332,329,335,-1,335,329,328,-1,214,336,165,-1,165,336,337,-1,165,337,163,-1,163,337,334,-1,163,334,338,-1,338,334,333,-1,211,146,215,-1,215,146,145,-1,215,145,339,-1,339,145,340,-1,203,141,145,-1,145,141,143,-1,145,143,340,-1,340,143,337,-1,340,337,341,-1,341,337,336,-1,206,342,139,-1,139,342,343,-1,139,343,137,-1,137,343,129,-1,137,129,344,-1,344,129,131,-1,202,120,207,-1,207,120,119,-1,207,119,345,-1,345,119,346,-1,195,347,119,-1,119,347,348,-1,119,348,346,-1,346,348,343,-1,346,343,349,-1,349,343,342,-1,197,350,127,-1,127,350,351,-1,127,351,125,-1,125,351,348,-1,125,348,352,-1,352,348,347,-1,194,190,198,-1,198,190,189,-1,198,189,353,-1,353,189,354,-1,110,355,93,-1,93,355,111,-1,93,111,189,-1,189,111,113,-1,189,113,354,-1,354,113,351,-1,354,351,356,-1,356,351,350,-1,357,177,358,-1,358,177,174,-1,358,174,359,-1,359,174,173,-1,116,118,360,-1,360,118,115,-1,360,115,361,-1,361,115,80,-1,361,80,114,-1,114,80,319,-1,114,319,113,-1,113,319,317,-1,113,317,351,-1,351,317,296,-1,351,296,348,-1,348,296,294,-1,348,294,343,-1,343,294,269,-1,343,269,129,-1,129,269,264,-1,129,264,143,-1,143,264,254,-1,143,254,337,-1,337,254,244,-1,337,244,334,-1,334,244,234,-1,334,234,329,-1,329,234,224,-1,329,224,173,-1,173,224,223,-1,173,223,359,-1,362,363,364,-1,364,363,365,-1,364,365,366,-1,366,365,367,-1,366,367,368,-1,368,367,369,-1,368,369,362,-1,362,369,363,-1,370,371,372,-1,372,371,373,-1,372,373,374,-1,374,373,375,-1,374,375,376,-1,376,375,377,-1,376,377,370,-1,370,377,371,-1,378,379,380,-1,380,379,381,-1,380,381,382,-1,382,381,383,-1,382,383,384,-1,384,383,385,-1,384,385,378,-1,378,385,379,-1,386,387,388,-1,388,387,389,-1,388,389,390,-1,390,389,391,-1,390,391,392,-1,392,391,393,-1,392,393,386,-1,386,393,394,-1,386,394,387,-1,395,396,397,-1,397,396,398,-1,397,398,399,-1,399,398,400,-1,399,400,401,-1,401,400,402,-1,401,402,395,-1,395,402,403,-1,395,403,396,-1,404,405,406,-1,406,405,407,-1,406,407,408,-1,408,407,409,-1,408,409,410,-1,410,409,411,-1,410,411,404,-1,404,411,412,-1,404,412,405,-1,413,414,415,-1,415,414,416,-1,415,416,417,-1,417,416,418,-1,417,418,419,-1,419,418,420,-1,419,420,421,-1,421,420,413,-1,421,413,415,-1,422,423,424,-1,424,423,425,-1,424,425,426,-1,426,425,427,-1,426,427,428,-1,428,427,429,-1,428,429,430,-1,430,429,422,-1,430,422,424,-1,431,432,433,-1,433,432,434,-1,433,434,435,-1,435,434,436,-1,435,436,437,-1,437,436,438,-1,437,438,431,-1,431,438,439,-1,431,439,432,-1,440,441,442,-1,442,441,443,-1,444,445,446,-1,446,445,447,-1,448,449,450,-1,450,449,451,-1,452,453,454,-1,454,453,455,-1,456,457,458,-1,458,457,459,-1,460,461,462,-1,462,461,463,-1,464,465,466,-1,466,465,467,-1,468,469,470,-1,470,469,471,-1,472,473,474,-1,474,473,475,-1,476,477,478,-1,478,477,479,-1,480,481,482,-1,482,481,483,-1,484,485,486,-1,486,485,487,-1,488,489,490,-1,490,489,491,-1,492,493,494,-1,494,493,495,-1,496,497,498,-1,498,497,499,-1,500,501,502,-1,502,501,503,-1,504,505,506,-1,506,505,507,-1,508,509,510,-1,510,509,511,-1,243,442,236,-1,236,442,443,-1,236,443,229,-1,251,445,239,-1,239,445,444,-1,239,444,237,-1,448,253,449,-1,449,253,249,-1,449,249,261,-1,281,453,259,-1,259,453,452,-1,259,452,263,-1,283,274,456,-1,456,274,457,-1,460,271,461,-1,461,271,270,-1,461,270,288,-1,290,465,300,-1,300,465,464,-1,300,464,287,-1,308,469,298,-1,298,469,468,-1,298,468,292,-1,313,473,320,-1,320,473,472,-1,320,472,307,-1,476,218,477,-1,477,218,220,-1,477,220,185,-1,483,169,482,-1,482,169,168,-1,482,168,219,-1,172,486,213,-1,213,486,487,-1,213,487,210,-1,211,490,146,-1,146,490,491,-1,146,491,147,-1,494,495,150,-1,150,495,151,-1,153,498,204,-1,204,498,499,-1,204,499,133,-1,503,201,502,-1,502,201,205,-1,502,205,135,-1,202,506,120,-1,120,506,507,-1,120,507,121,-1,511,193,510,-1,510,193,196,-1,510,196,123,-1,512,513,514,-1,514,513,515,-1,514,515,516,-1,516,515,517,-1,516,517,518,-1,518,517,519,-1,518,519,512,-1,512,519,520,-1,512,520,513,-1,521,522,523,-1,523,522,524,-1,523,524,525,-1,525,524,526,-1,527,528,529,-1,530,531,532,-1,532,531,533,-1,529,528,534,-1,535,536,532,-1,532,536,537,-1,532,537,530,-1,538,529,539,-1,539,529,540,-1,538,541,529,-1,529,541,542,-1,529,542,527,-1,543,544,535,-1,535,544,545,-1,535,545,536,-1,533,546,532,-1,532,546,547,-1,532,547,548,-1,528,549,534,-1,534,549,550,-1,534,550,551,-1,551,550,552,-1,552,553,551,-1,551,553,554,-1,551,554,555,-1,555,554,556,-1,555,556,535,-1,535,556,557,-1,535,557,543,-1,524,225,526,-1,526,225,226,-1,526,226,230,-1,357,532,548,-1,529,178,540,-1,540,178,357,-1,540,357,558,-1,558,357,548,-1,559,560,561,-1,561,560,562,-1,561,562,563,-1,563,562,564,-1,441,440,227,-1,227,440,242,-1,565,566,567,-1,241,446,447,-1,523,525,567,-1,567,525,228,-1,250,568,569,-1,570,571,572,-1,572,571,573,-1,572,573,565,-1,565,567,572,-1,572,567,228,-1,572,228,574,-1,228,227,574,-1,574,227,242,-1,574,242,569,-1,569,242,241,-1,569,241,250,-1,250,241,447,-1,252,575,576,-1,450,451,252,-1,252,451,260,-1,570,572,577,-1,577,572,568,-1,577,568,576,-1,576,568,250,-1,576,250,252,-1,575,252,578,-1,578,252,260,-1,578,260,579,-1,454,455,262,-1,262,455,280,-1,282,458,459,-1,276,275,580,-1,459,276,282,-1,282,276,580,-1,282,580,280,-1,280,580,579,-1,280,579,262,-1,262,579,260,-1,286,285,581,-1,582,312,583,-1,583,312,314,-1,559,561,314,-1,314,561,584,-1,314,584,583,-1,583,584,7,-1,583,7,13,-1,462,463,275,-1,275,463,286,-1,275,286,580,-1,580,286,581,-1,580,581,585,-1,585,581,583,-1,585,583,586,-1,586,583,13,-1,470,471,291,-1,291,471,306,-1,466,467,285,-1,285,467,289,-1,285,289,581,-1,581,289,291,-1,581,291,587,-1,587,291,306,-1,587,306,582,-1,582,306,305,-1,582,305,312,-1,312,305,474,-1,312,474,475,-1,588,564,562,-1,589,590,186,-1,186,590,591,-1,186,591,41,-1,562,327,588,-1,588,327,33,-1,588,33,591,-1,591,33,39,-1,591,39,41,-1,535,532,592,-1,592,532,357,-1,592,357,358,-1,524,522,225,-1,225,522,593,-1,225,593,223,-1,223,593,592,-1,223,592,359,-1,359,592,358,-1,3,591,590,-1,535,592,555,-1,555,592,594,-1,555,594,595,-1,594,25,595,-1,595,25,23,-1,595,23,596,-1,596,597,595,-1,595,597,598,-1,595,598,599,-1,600,595,601,-1,601,595,599,-1,601,599,602,-1,602,599,603,-1,602,603,604,-1,604,603,605,-1,604,605,606,-1,606,605,600,-1,606,600,601,-1,605,607,600,-1,600,607,608,-1,600,608,609,-1,590,610,3,-1,3,610,600,-1,3,600,4,-1,4,600,609,-1,4,609,27,-1,611,612,613,-1,614,615,603,-1,616,617,609,-1,618,619,26,-1,618,620,621,-1,621,620,622,-1,618,26,623,-1,623,26,27,-1,623,27,622,-1,622,27,609,-1,622,609,621,-1,621,609,617,-1,621,617,624,-1,624,625,626,-1,626,625,616,-1,626,616,608,-1,608,616,609,-1,627,607,628,-1,607,627,608,-1,608,627,629,-1,608,629,626,-1,626,629,630,-1,626,630,628,-1,628,630,631,-1,628,631,627,-1,632,628,633,-1,633,628,607,-1,633,607,634,-1,634,607,605,-1,634,605,635,-1,635,605,636,-1,635,636,637,-1,638,639,636,-1,636,639,640,-1,636,640,641,-1,641,640,642,-1,641,642,603,-1,603,642,643,-1,603,643,605,-1,605,643,638,-1,605,638,636,-1,644,645,646,-1,646,645,647,-1,646,647,599,-1,599,647,648,-1,603,615,641,-1,641,615,649,-1,641,649,650,-1,651,598,652,-1,598,651,599,-1,651,653,599,-1,599,653,654,-1,599,654,646,-1,646,654,655,-1,646,655,652,-1,652,655,656,-1,652,656,651,-1,657,658,652,-1,652,658,659,-1,652,659,660,-1,660,659,661,-1,660,661,597,-1,597,661,662,-1,597,662,598,-1,598,662,657,-1,598,657,652,-1,663,660,664,-1,664,660,597,-1,664,597,665,-1,665,597,596,-1,665,596,666,-1,667,668,666,-1,596,23,22,-1,666,596,667,-1,667,596,22,-1,667,22,669,-1,670,671,672,-1,621,673,674,-1,618,621,619,-1,619,621,674,-1,619,674,675,-1,675,674,670,-1,675,670,676,-1,676,670,672,-1,676,672,586,-1,621,677,678,-1,679,680,678,-1,678,680,672,-1,678,672,621,-1,621,672,671,-1,621,671,673,-1,624,626,621,-1,621,626,681,-1,621,681,677,-1,626,682,683,-1,682,626,684,-1,684,626,628,-1,684,628,685,-1,685,628,686,-1,685,686,683,-1,683,686,680,-1,683,680,626,-1,626,680,679,-1,626,679,681,-1,687,688,636,-1,636,688,628,-1,636,628,637,-1,637,628,632,-1,687,689,690,-1,690,689,686,-1,690,686,691,-1,691,686,628,-1,691,628,692,-1,692,628,688,-1,687,636,689,-1,689,636,693,-1,689,693,694,-1,693,695,694,-1,694,695,696,-1,694,696,641,-1,641,696,697,-1,641,697,636,-1,636,697,698,-1,636,698,693,-1,699,700,641,-1,641,700,701,-1,641,701,694,-1,694,701,702,-1,694,702,703,-1,603,599,614,-1,614,599,648,-1,614,648,704,-1,704,648,705,-1,704,705,650,-1,650,705,644,-1,650,644,641,-1,641,644,646,-1,641,646,699,-1,699,646,706,-1,699,706,702,-1,706,707,702,-1,702,707,708,-1,702,708,703,-1,703,708,709,-1,703,709,646,-1,646,709,710,-1,646,710,706,-1,711,712,646,-1,646,712,713,-1,646,713,703,-1,703,713,714,-1,703,714,715,-1,715,714,716,-1,715,716,652,-1,652,716,711,-1,652,711,646,-1,717,718,652,-1,652,718,719,-1,652,719,715,-1,715,719,720,-1,715,720,721,-1,721,720,722,-1,721,722,660,-1,660,722,717,-1,660,717,652,-1,723,724,667,-1,667,724,660,-1,667,660,668,-1,668,660,663,-1,724,725,660,-1,660,725,726,-1,660,726,721,-1,721,726,727,-1,721,727,613,-1,727,723,613,-1,613,723,667,-1,613,667,611,-1,611,667,669,-1,586,672,585,-1,585,672,680,-1,585,680,580,-1,580,680,686,-1,580,686,579,-1,579,686,689,-1,579,689,578,-1,578,689,694,-1,578,694,575,-1,575,694,703,-1,575,703,576,-1,576,703,715,-1,576,715,577,-1,577,715,721,-1,577,721,570,-1,570,721,613,-1,570,613,571,-1,571,613,612,-1,571,612,573,-1,728,729,730,-1,730,729,731,-1,732,733,730,-1,730,733,734,-1,730,734,728,-1,589,735,736,-1,736,737,589,-1,589,737,738,-1,589,738,739,-1,739,740,589,-1,589,740,741,-1,589,741,590,-1,590,741,742,-1,590,742,743,-1,744,745,746,-1,746,745,747,-1,746,747,748,-1,731,749,730,-1,730,749,750,-1,730,750,751,-1,746,610,744,-1,744,610,590,-1,744,590,752,-1,752,590,743,-1,748,753,746,-1,746,753,754,-1,746,754,732,-1,732,754,755,-1,732,755,733,-1,756,602,757,-1,757,602,604,-1,758,756,759,-1,759,756,757,-1,760,758,761,-1,761,758,759,-1,760,761,762,-1,762,761,763,-1,762,763,764,-1,764,763,765,-1,601,764,606,-1,606,764,765,-1,601,602,764,-1,764,602,762,-1,756,758,602,-1,602,758,760,-1,602,760,762,-1,604,606,765,-1,759,757,761,-1,761,757,604,-1,761,604,763,-1,763,604,765,-1,584,766,7,-1,7,766,588,-1,7,588,3,-1,3,588,591,-1,20,767,18,-1,18,767,566,-1,18,566,565,-1,767,768,566,-1,566,768,769,-1,566,769,594,-1,769,770,594,-1,594,770,771,-1,594,771,772,-1,772,773,594,-1,594,773,24,-1,594,24,25,-1,594,592,566,-1,566,592,593,-1,566,593,567,-1,567,593,774,-1,611,18,612,-1,612,18,565,-1,612,565,573,-1,586,13,676,-1,676,13,12,-1,676,12,675,-1,774,521,567,-1,567,521,523,-1,521,774,522,-1,522,774,593,-1,775,776,568,-1,568,776,569,-1,777,775,572,-1,572,775,568,-1,778,777,574,-1,574,777,572,-1,776,778,569,-1,569,778,574,-1,777,778,775,-1,775,778,776,-1,563,766,561,-1,561,766,584,-1,766,563,588,-1,588,563,564,-1,779,780,587,-1,587,780,581,-1,781,779,582,-1,582,779,587,-1,782,781,583,-1,583,781,582,-1,780,782,581,-1,581,782,583,-1,781,782,779,-1,779,782,780,-1,783,784,723,-1,723,784,724,-1,784,785,724,-1,724,785,725,-1,726,725,786,-1,786,725,785,-1,787,783,727,-1,727,783,723,-1,783,787,788,-1,788,787,786,-1,788,786,789,-1,789,786,785,-1,789,785,790,-1,790,785,784,-1,790,784,791,-1,791,784,783,-1,791,783,788,-1,520,519,666,-1,666,519,665,-1,519,517,665,-1,665,517,664,-1,517,515,664,-1,664,515,663,-1,668,663,513,-1,513,663,515,-1,315,311,560,-1,560,311,325,-1,560,325,562,-1,562,325,326,-1,562,326,327,-1,194,730,186,-1,186,730,751,-1,751,792,186,-1,186,792,735,-1,186,735,589,-1,793,551,595,-1,595,551,555,-1,746,794,610,-1,610,794,600,-1,794,793,600,-1,600,793,595,-1,134,497,496,-1,746,732,794,-1,794,732,192,-1,794,192,191,-1,509,508,191,-1,191,508,124,-1,191,124,794,-1,794,124,122,-1,505,504,122,-1,122,504,200,-1,122,200,794,-1,794,200,199,-1,493,492,152,-1,152,492,149,-1,148,489,488,-1,170,481,480,-1,209,208,793,-1,217,216,793,-1,501,500,199,-1,199,500,136,-1,199,136,794,-1,794,136,134,-1,794,134,154,-1,154,134,496,-1,488,209,148,-1,148,209,793,-1,148,793,149,-1,149,793,794,-1,149,794,152,-1,152,794,154,-1,480,217,170,-1,170,217,793,-1,170,793,171,-1,171,793,208,-1,171,208,484,-1,484,208,485,-1,534,551,183,-1,183,551,793,-1,183,793,184,-1,184,793,216,-1,184,216,479,-1,479,216,478,-1,479,477,184,-1,184,477,185,-1,183,178,534,-1,534,178,529,-1,230,228,526,-1,526,228,525,-1,443,441,229,-1,229,441,227,-1,
        ]
    }
}
Shape{
    appearance Appearance {
        material  Material 	{
            diffuseColor 0.7529411764705882 0.7529411764705882 0.7529411764705882
            specularColor 0.3764705882352941 0.3764705882352941 0.3764705882352941
            ambientIntensity 0.7529
            transparency 0.0
            shininess 0.5
        }
    }
    geometry IndexedFaceSet {
        ccw TRUE
        solid FALSE
        coord DEF co Coordinate {
            point [
                -5.189 0.5571 -1.2598, -5.189 0.4784 -1.1811, -5.4409 0.5571 -1.2598, -5.4409 0.4784 -1.1811, -5.189 0.6516 -1.2598, -5.4409 0.6516 -1.2598, -5.189 0.7303 -1.1811, -5.4409 0.7303 -1.1811, -5.189 0.7303 0.3858, -5.189 0.7047 0.3858, -5.189 0.4784 0.3858, -5.4409 0.7047 0.3858, -5.4409 0.7303 0.3858, -5.4409 0.4784 0.3858, -5.189 0.6516 2.9132, -5.189 0.7303 2.8345, -5.4409 0.6516 2.9132, -5.4409 0.7303 2.8345, -5.189 0.5571 2.9132, -5.4409 0.5571 2.9132, -5.189 0.4784 2.8345, -5.4409 0.4784 2.8345, -5.189 0.4784 1.1378, -5.4409 0.4784 1.1378, -5.4409 0.7303 1.1378, -5.189 0.7303 1.1378, -5.189 -0.5295 2.9132, -5.189 -0.4508 2.8345, -5.4409 -0.5295 2.9132, -5.4409 -0.4508 2.8345, -5.189 -0.624 2.9132, -5.4409 -0.624 2.9132, -5.189 -0.7028 2.8345, -5.4409 -0.7028 2.8345, -5.189 -0.7028 1.1378, -5.189 -0.4508 1.1378, -5.4409 -0.4508 1.1378, -5.4409 -0.7028 1.1378, -5.189 -0.4508 0.3858, -5.189 -0.4508 -1.1811, -5.4409 -0.4508 0.3858, -5.4409 -0.4508 -1.1811, -5.4409 -0.7028 0.3858, -5.4409 -0.7028 -1.1811, -5.189 -0.7028 0.3858, -5.189 -0.7028 -1.1811, -5.189 -0.624 -1.2598, -5.189 -0.5295 -1.2598, -5.4409 -0.5295 -1.2598, -5.4409 -0.624 -1.2598
            ]
        }
        coordIndex [
            0,1,2,-1,2,1,3,-1,4,0,5,-1,5,0,2,-1,6,4,7,-1,7,4,5,-1,6,8,9,-1,0,4,1,-1,1,4,6,-1,1,6,10,-1,10,6,9,-1,11,12,7,-1,13,11,3,-1,3,11,7,-1,3,7,2,-1,2,7,5,-1,8,6,12,-1,12,6,7,-1,13,3,10,-1,10,3,1,-1,14,15,16,-1,16,15,17,-1,18,14,19,-1,19,14,16,-1,20,18,21,-1,21,18,19,-1,20,21,22,-1,22,21,23,-1,17,15,24,-1,24,15,25,-1,18,20,14,-1,14,20,22,-1,14,22,15,-1,15,22,25,-1,16,17,19,-1,19,17,24,-1,19,24,21,-1,21,24,23,-1,26,27,28,-1,28,27,29,-1,30,26,31,-1,31,26,28,-1,32,30,33,-1,33,30,31,-1,30,32,26,-1,26,32,34,-1,26,34,27,-1,27,34,35,-1,28,29,31,-1,31,29,36,-1,31,36,33,-1,33,36,37,-1,34,32,37,-1,37,32,33,-1,36,29,35,-1,35,29,27,-1,38,39,40,-1,40,39,41,-1,42,43,44,-1,44,43,45,-1,46,47,45,-1,45,47,39,-1,45,39,44,-1,44,39,38,-1,48,49,41,-1,41,49,43,-1,41,43,40,-1,40,43,42,-1,46,45,49,-1,49,45,43,-1,47,46,48,-1,48,46,49,-1,39,47,41,-1,41,47,48,-1,
        ]
    }
}
Shape{
    appearance Appearance {
        material  Material 	{
            diffuseColor 0.11372549019607843 0.11372549019607843 0.11372549019607843
            specularColor 0.058823529411764705 0.058823529411764705 0.058823529411764705
            ambientIntensity 0.1137
            transparency 0.0
            shininess 0.5
        }
    }
    geometry IndexedFaceSet {
        ccw TRUE
        solid FALSE
        coord DEF co Coordinate {
            point [
                4.7638 0.0532 1.1378, 4.7638 1.1555 1.1378, 4.7638 0.0532 3.8937, 4.7638 1.1555 3.8937, 5.8661 1.1555 1.1378, 5.8661 1.1555 3.8937, 5.8661 0.0532 1.1378, 5.8661 0.0532 3.8937, 3.5827 0.0532 1.1378, 3.5827 1.1555 1.1378, 3.5827 0.0532 3.8937, 3.5827 1.1555 3.8937, 4.685 1.1555 1.1378, 4.685 1.1555 3.8937, 4.685 0.0532 1.1378, 4.685 0.0532 3.8937, 2.4016 0.0532 1.1378, 2.4016 1.1555 1.1378, 2.4016 0.0532 3.8937, 2.4016 1.1555 3.8937, 3.5039 1.1555 1.1378, 3.5039 1.1555 3.8937, 3.5039 0.0532 1.1378, 3.5039 0.0532 3.8937, 1.2205 0.3681 1.1378, 1.2205 1.1555 1.1378, 1.2205 0.3681 3.8937, 1.2205 1.1555 3.8937, 2.3228 1.1555 1.1378, 2.3228 1.1555 3.8937, 2.3228 0.0532 1.1378, 2.3228 0.0532 3.8937, 1.5354 0.0532 3.8937, 1.5354 0.0532 1.1378, 0.0394 0.3681 1.1378, 0.0394 1.1555 1.1378, 0.0394 0.3681 3.8937, 0.0394 1.1555 3.8937, 1.1417 1.1555 1.1378, 1.1417 1.1555 3.8937, 1.1417 0.0532 1.1378, 1.1417 0.0532 3.8937, 0.3543 0.0532 3.8937, 0.3543 0.0532 1.1378, -1.1417 0.3681 1.1378, -1.1417 1.1555 1.1378, -1.1417 0.3681 3.8937, -1.1417 1.1555 3.8937, -0.0394 1.1555 1.1378, -0.0394 1.1555 3.8937, -0.0394 0.0532 1.1378, -0.0394 0.0532 3.8937, -0.8268 0.0532 3.8937, -0.8268 0.0532 1.1378, -2.3228 0.0532 1.1378, -2.3228 1.1555 1.1378, -2.3228 0.0532 3.8937, -2.3228 1.1555 3.8937, -1.2205 1.1555 1.1378, -1.2205 1.1555 3.8937, -1.2205 0.3681 3.8937, -1.2205 0.3681 1.1378, -1.5354 0.0532 1.1378, -1.5354 0.0532 3.8937, -3.5039 0.0532 1.1378, -3.5039 1.1555 1.1378, -3.5039 0.0532 3.8937, -3.5039 1.1555 3.8937, -2.4016 1.1555 1.1378, -2.4016 1.1555 3.8937, -2.4016 0.3681 3.8937, -2.4016 0.3681 1.1378, -2.7165 0.0532 1.1378, -2.7165 0.0532 3.8937, -4.685 0.3681 1.1378, -4.685 1.1555 1.1378, -4.685 0.3681 3.8937, -4.685 1.1555 3.8937, -3.5827 1.1555 1.1378, -3.5827 1.1555 3.8937, -3.5827 0.0532 1.1378, -3.5827 0.0532 3.8937, -4.3701 0.0532 3.8937, -4.3701 0.0532 1.1378, 4.7638 -1.1279 1.1378, 4.7638 -0.0256 1.1378, 4.7638 -1.1279 3.8937, 4.7638 -0.0256 3.8937, 5.8661 -0.0256 1.1378, 5.8661 -0.0256 3.8937, 5.8661 -1.1279 1.1378, 5.8661 -1.1279 3.8937, 5.189 -0.7028 1.1378, 5.4409 -0.7028 1.1378, 5.4409 -0.4508 1.1378, 5.189 -0.4508 1.1378, 3.5827 -1.1279 1.1378, 3.5827 -0.0256 1.1378, 3.5827 -1.1279 3.8937, 3.5827 -0.0256 3.8937, 4.685 -0.0256 1.1378, 4.685 -0.0256 3.8937, 4.685 -1.1279 1.1378, 4.685 -1.1279 3.8937, 4.0079 -0.7028 1.1378, 4.2598 -0.7028 1.1378, 4.2598 -0.4508 1.1378, 4.0079 -0.4508 1.1378, 2.4016 -1.1279 1.1378, 2.4016 -0.0256 1.1378, 2.4016 -1.1279 3.8937, 2.4016 -0.0256 3.8937, 3.5039 -0.0256 1.1378, 3.5039 -0.0256 3.8937, 3.5039 -1.1279 1.1378, 3.5039 -1.1279 3.8937, 2.8268 -0.7028 1.1378, 3.0787 -0.7028 1.1378, 3.0787 -0.4508 1.1378, 2.8268 -0.4508 1.1378, 1.2205 -1.1279 1.1378, 1.2205 -0.0256 1.1378, 1.2205 -1.1279 3.8937, 1.2205 -0.0256 3.8937, 2.3228 -0.0256 1.1378, 2.3228 -0.0256 3.8937, 2.3228 -0.813 3.8937, 2.3228 -0.813 1.1378, 2.0079 -1.1279 1.1378, 2.0079 -1.1279 3.8937, 1.8976 -0.7028 1.1378, 1.8976 -0.4508 1.1378, 1.6457 -0.4508 1.1378, 1.6457 -0.7028 1.1378, 0.0394 -0.813 1.1378, 0.0394 -0.0256 1.1378, 0.0394 -0.813 3.8937, 0.0394 -0.0256 3.8937, 1.1417 -0.0256 1.1378, 1.1417 -0.0256 3.8937, 1.1417 -1.1279 1.1378, 1.1417 -1.1279 3.8937, 0.3543 -1.1279 3.8937, 0.3543 -1.1279 1.1378, 0.4646 -0.7028 1.1378, 0.7165 -0.7028 1.1378, 0.7165 -0.4508 1.1378, 0.4646 -0.4508 1.1378, -1.1417 -1.1279 1.1378, -1.1417 -0.0256 1.1378, -1.1417 -1.1279 3.8937, -1.1417 -0.0256 3.8937, -0.0394 -0.0256 1.1378, -0.0394 -0.0256 3.8937, -0.0394 -1.1279 1.1378, -0.0394 -1.1279 3.8937, -0.7165 -0.7028 1.1378, -0.4646 -0.7028 1.1378, -0.4646 -0.4508 1.1378, -0.7165 -0.4508 1.1378, -2.3228 -1.1279 1.1378, -2.3228 -0.0256 1.1378, -2.3228 -1.1279 3.8937, -2.3228 -0.0256 3.8937, -1.2205 -0.0256 1.1378, -1.2205 -0.0256 3.8937, -1.2205 -0.813 3.8937, -1.2205 -0.813 1.1378, -1.5354 -1.1279 1.1378, -1.5354 -1.1279 3.8937, -1.6457 -0.7028 1.1378, -1.6457 -0.4508 1.1378, -1.8976 -0.4508 1.1378, -1.8976 -0.7028 1.1378, -3.5039 -1.1279 1.1378, -3.5039 -0.0256 1.1378, -3.5039 -1.1279 3.8937, -3.5039 -0.0256 3.8937, -2.4016 -0.0256 1.1378, -2.4016 -0.0256 3.8937, -2.4016 -0.813 3.8937, -2.4016 -0.813 1.1378, -2.7165 -1.1279 1.1378, -2.7165 -1.1279 3.8937, -2.8268 -0.7028 1.1378, -2.8268 -0.4508 1.1378, -3.0787 -0.4508 1.1378, -3.0787 -0.7028 1.1378, -4.685 -1.1279 1.1378, -4.685 -0.0256 1.1378, -4.685 -1.1279 3.8937, -4.685 -0.0256 3.8937, -3.5827 -0.0256 1.1378, -3.5827 -0.0256 3.8937, -3.5827 -0.813 3.8937, -3.5827 -0.813 1.1378, -3.8976 -1.1279 1.1378, -3.8976 -1.1279 3.8937, -4.0079 -0.7028 1.1378, -4.0079 -0.4508 1.1378, -4.2598 -0.4508 1.1378, -4.2598 -0.7028 1.1378, 5.5512 1.2736 -0.0079, 5.5512 0.8508 -0.0079, 5.5512 1.2736 0.3858, 5.5512 0.8508 0.3858, 5.0787 1.2736 0.3858, 5.0787 0.8508 0.3858, 5.0787 1.2736 -0.0079, 5.0787 0.8508 -0.0079, 4.3701 1.2736 -0.0079, 4.3701 0.8508 -0.0079, 4.3701 1.2736 0.3858, 4.3701 0.8508 0.3858, 3.8976 1.2736 0.3858, 3.8976 0.8508 0.3858, 3.8976 1.2736 -0.0079, 3.8976 0.8508 -0.0079, 3.189 1.2736 -0.0079, 3.189 0.8508 -0.0079, 3.189 1.2736 0.3858, 3.189 0.8508 0.3858, 2.7165 1.2736 0.3858, 2.7165 0.8508 0.3858, 2.7165 1.2736 -0.0079, 2.7165 0.8508 -0.0079, 2.0079 1.2736 -0.0079, 2.0079 0.8508 -0.0079, 2.0079 1.2736 0.3858, 2.0079 0.8508 0.3858, 1.5354 1.2736 0.3858, 1.5354 0.8508 0.3858, 1.5354 1.2736 -0.0079, 1.5354 0.8508 -0.0079, 0.8268 1.2736 -0.0079, 0.8268 0.8508 -0.0079, 0.8268 1.2736 0.3858, 0.8268 0.8508 0.3858, 0.3543 1.2736 0.3858, 0.3543 0.8508 0.3858, 0.3543 1.2736 -0.0079, 0.3543 0.8508 -0.0079, -0.3543 1.2736 -0.0079, -0.3543 0.8508 -0.0079, -0.3543 1.2736 0.3858, -0.3543 0.8508 0.3858, -0.8268 1.2736 0.3858, -0.8268 0.8508 0.3858, -0.8268 1.2736 -0.0079, -0.8268 0.8508 -0.0079, -1.5354 1.2736 -0.0079, -1.5354 0.8508 -0.0079, -1.5354 1.2736 0.3858, -1.5354 0.8508 0.3858, -2.0079 1.2736 0.3858, -2.0079 0.8508 0.3858, -2.0079 1.2736 -0.0079, -2.0079 0.8508 -0.0079, -2.7165 1.2736 -0.0079, -2.7165 0.8508 -0.0079, -2.7165 1.2736 0.3858, -2.7165 0.8508 0.3858, -3.189 1.2736 0.3858, -3.189 0.8508 0.3858, -3.189 1.2736 -0.0079, -3.189 0.8508 -0.0079, -3.8976 1.2736 -0.0079, -3.8976 0.8508 -0.0079, -3.8976 1.2736 0.3858, -3.8976 0.8508 0.3858, -4.3701 1.2736 0.3858, -4.3701 0.8508 0.3858, -4.3701 1.2736 -0.0079, -4.3701 0.8508 -0.0079, 5.0787 -1.2165 0.3858, 5.0787 -1.4114 0.3858, 5.0787 -1.2165 -0.0079, 5.0787 -1.4114 -0.0079, 5.5512 -1.2165 -0.0079, 5.5512 -1.4114 -0.0079, 5.5512 -1.2165 0.3858, 5.5512 -1.4114 0.3858, 3.8976 -1.2165 0.3858, 3.8976 -1.4114 0.3858, 3.8976 -1.2165 -0.0079, 3.8976 -1.4114 -0.0079, 4.3701 -1.2165 -0.0079, 4.3701 -1.4114 -0.0079, 4.3701 -1.2165 0.3858, 4.3701 -1.4114 0.3858, 2.7165 -1.2165 0.3858, 2.7165 -1.4114 0.3858, 2.7165 -1.2165 -0.0079, 2.7165 -1.4114 -0.0079, 3.189 -1.2165 -0.0079, 3.189 -1.4114 -0.0079, 3.189 -1.2165 0.3858, 3.189 -1.4114 0.3858, 1.5354 -1.2165 0.3858, 1.5354 -1.4114 0.3858, 1.5354 -1.2165 -0.0079, 1.5354 -1.4114 -0.0079, 2.0079 -1.2165 -0.0079, 2.0079 -1.4114 -0.0079, 2.0079 -1.2165 0.3858, 2.0079 -1.4114 0.3858, 0.3543 -1.2165 0.3858, 0.3543 -1.4114 0.3858, 0.3543 -1.2165 -0.0079, 0.3543 -1.4114 -0.0079, 0.8268 -1.2165 -0.0079, 0.8268 -1.4114 -0.0079, 0.8268 -1.2165 0.3858, 0.8268 -1.4114 0.3858, -0.8268 -1.2165 0.3858, -0.8268 -1.4114 0.3858, -0.8268 -1.2165 -0.0079, -0.8268 -1.4114 -0.0079, -0.3543 -1.2165 -0.0079, -0.3543 -1.4114 -0.0079, -0.3543 -1.2165 0.3858, -0.3543 -1.4114 0.3858, -2.0079 -1.2165 0.3858, -2.0079 -1.4114 0.3858, -2.0079 -1.2165 -0.0079, -2.0079 -1.4114 -0.0079, -1.5354 -1.2165 -0.0079, -1.5354 -1.4114 -0.0079, -1.5354 -1.2165 0.3858, -1.5354 -1.4114 0.3858, -3.189 -1.2165 0.3858, -3.189 -1.4114 0.3858, -3.189 -1.2165 -0.0079, -3.189 -1.4114 -0.0079, -2.7165 -1.2165 -0.0079, -2.7165 -1.4114 -0.0079, -2.7165 -1.2165 0.3858, -2.7165 -1.4114 0.3858, -4.3701 -1.2165 0.3858, -4.3701 -1.4114 0.3858, -4.3701 -1.2165 -0.0079, -4.3701 -1.4114 -0.0079, -3.8976 -1.2165 -0.0079, -3.8976 -1.4114 -0.0079, -3.8976 -1.2165 0.3858, -3.8976 -1.4114 0.3858
            ]
        }
        coordIndex [
            0,1,2,-1,2,1,3,-1,1,4,3,-1,3,4,5,-1,4,6,5,-1,5,6,7,-1,6,0,7,-1,7,0,2,-1,8,9,10,-1,10,9,11,-1,9,12,11,-1,11,12,13,-1,12,14,13,-1,13,14,15,-1,14,8,15,-1,15,8,10,-1,16,17,18,-1,18,17,19,-1,17,20,19,-1,19,20,21,-1,20,22,21,-1,21,22,23,-1,22,16,23,-1,23,16,18,-1,24,25,26,-1,26,25,27,-1,25,28,27,-1,27,28,29,-1,28,30,29,-1,29,30,31,-1,32,31,33,-1,33,31,30,-1,34,35,36,-1,36,35,37,-1,35,38,37,-1,37,38,39,-1,38,40,39,-1,39,40,41,-1,42,41,43,-1,43,41,40,-1,44,45,46,-1,46,45,47,-1,45,48,47,-1,47,48,49,-1,48,50,49,-1,49,50,51,-1,52,51,53,-1,53,51,50,-1,54,55,56,-1,56,55,57,-1,55,58,57,-1,57,58,59,-1,60,59,61,-1,61,59,58,-1,62,54,63,-1,63,54,56,-1,64,65,66,-1,66,65,67,-1,65,68,67,-1,67,68,69,-1,70,69,71,-1,71,69,68,-1,72,64,73,-1,73,64,66,-1,74,75,76,-1,76,75,77,-1,75,78,77,-1,77,78,79,-1,78,80,79,-1,79,80,81,-1,82,81,83,-1,83,81,80,-1,84,85,86,-1,86,85,87,-1,85,88,87,-1,87,88,89,-1,88,90,89,-1,89,90,91,-1,90,84,91,-1,91,84,86,-1,92,84,93,-1,93,84,90,-1,93,90,94,-1,94,90,88,-1,94,88,95,-1,95,88,85,-1,95,85,92,-1,92,85,84,-1,96,97,98,-1,98,97,99,-1,97,100,99,-1,99,100,101,-1,100,102,101,-1,101,102,103,-1,102,96,103,-1,103,96,98,-1,104,96,105,-1,105,96,102,-1,105,102,106,-1,106,102,100,-1,106,100,107,-1,107,100,97,-1,107,97,104,-1,104,97,96,-1,108,109,110,-1,110,109,111,-1,109,112,111,-1,111,112,113,-1,112,114,113,-1,113,114,115,-1,114,108,115,-1,115,108,110,-1,116,108,117,-1,117,108,114,-1,117,114,118,-1,118,114,112,-1,118,112,119,-1,119,112,109,-1,119,109,116,-1,116,109,108,-1,120,121,122,-1,122,121,123,-1,121,124,123,-1,123,124,125,-1,126,125,127,-1,127,125,124,-1,128,120,129,-1,129,120,122,-1,120,128,130,-1,130,128,127,-1,130,127,131,-1,131,127,124,-1,131,124,132,-1,132,124,121,-1,132,121,133,-1,133,121,120,-1,133,120,130,-1,134,135,136,-1,136,135,137,-1,135,138,137,-1,137,138,139,-1,138,140,139,-1,139,140,141,-1,142,141,143,-1,143,141,140,-1,144,143,145,-1,145,143,140,-1,145,140,146,-1,146,140,138,-1,146,138,147,-1,147,138,135,-1,147,135,144,-1,144,135,134,-1,144,134,143,-1,148,149,150,-1,150,149,151,-1,149,152,151,-1,151,152,153,-1,152,154,153,-1,153,154,155,-1,154,148,155,-1,155,148,150,-1,156,148,157,-1,157,148,154,-1,157,154,158,-1,158,154,152,-1,158,152,159,-1,159,152,149,-1,159,149,156,-1,156,149,148,-1,160,161,162,-1,162,161,163,-1,161,164,163,-1,163,164,165,-1,166,165,167,-1,167,165,164,-1,168,160,169,-1,169,160,162,-1,160,168,170,-1,170,168,167,-1,170,167,171,-1,171,167,164,-1,171,164,172,-1,172,164,161,-1,172,161,173,-1,173,161,160,-1,173,160,170,-1,174,175,176,-1,176,175,177,-1,175,178,177,-1,177,178,179,-1,180,179,181,-1,181,179,178,-1,182,174,183,-1,183,174,176,-1,174,182,184,-1,184,182,181,-1,184,181,185,-1,185,181,178,-1,185,178,186,-1,186,178,175,-1,186,175,187,-1,187,175,174,-1,187,174,184,-1,188,189,190,-1,190,189,191,-1,189,192,191,-1,191,192,193,-1,194,193,195,-1,195,193,192,-1,196,188,197,-1,197,188,190,-1,188,196,198,-1,198,196,195,-1,198,195,199,-1,199,195,192,-1,199,192,200,-1,200,192,189,-1,200,189,201,-1,201,189,188,-1,201,188,198,-1,202,203,204,-1,204,203,205,-1,206,207,208,-1,208,207,209,-1,210,211,212,-1,212,211,213,-1,214,215,216,-1,216,215,217,-1,218,219,220,-1,220,219,221,-1,222,223,224,-1,224,223,225,-1,226,227,228,-1,228,227,229,-1,230,231,232,-1,232,231,233,-1,234,235,236,-1,236,235,237,-1,238,239,240,-1,240,239,241,-1,242,243,244,-1,244,243,245,-1,246,247,248,-1,248,247,249,-1,250,251,252,-1,252,251,253,-1,254,255,256,-1,256,255,257,-1,258,259,260,-1,260,259,261,-1,262,263,264,-1,264,263,265,-1,266,267,268,-1,268,267,269,-1,270,271,272,-1,272,271,273,-1,274,275,276,-1,276,275,277,-1,278,279,280,-1,280,279,281,-1,282,283,284,-1,284,283,285,-1,286,287,288,-1,288,287,289,-1,290,291,292,-1,292,291,293,-1,294,295,296,-1,296,295,297,-1,298,299,300,-1,300,299,301,-1,302,303,304,-1,304,303,305,-1,306,307,308,-1,308,307,309,-1,310,311,312,-1,312,311,313,-1,314,315,316,-1,316,315,317,-1,318,319,320,-1,320,319,321,-1,322,323,324,-1,324,323,325,-1,326,327,328,-1,328,327,329,-1,330,331,332,-1,332,331,333,-1,334,335,336,-1,336,335,337,-1,338,339,340,-1,340,339,341,-1,342,343,344,-1,344,343,345,-1,
        ]
    }
}
Shape{
    appearance Appearance {
        material  Material 	{
            diffuseColor 0.7529411764705882 0.7529411764705882 0.7529411764705882
            specularColor 0.3764705882352941 0.3764705882352941 0.3764705882352941
            ambientIntensity 0.7529
            transparency 0.0
            shininess 0.5
        }
    }
    geometry IndexedFaceSet {
        ccw TRUE
        solid FALSE
        coord DEF co Coordinate {
            point [
                -4.0079 0.6516 2.9132, -4.0079 0.7303 2.8345, -4.2598 0.6516 2.9132, -4.2598 0.7303 2.8345, -4.0079 0.5571 2.9132, -4.2598 0.5571 2.9132, -4.0079 0.4784 2.8345, -4.2598 0.4784 2.8345, -4.0079 0.4784 1.1378, -4.0079 0.7303 1.1378, -4.2598 0.7303 1.1378, -4.2598 0.4784 1.1378, -4.2598 0.4784 0.3858, -4.2598 0.4784 -1.1811, -4.0079 0.4784 0.3858, -4.0079 0.4784 -1.1811, -4.0079 0.7303 0.3858, -4.0079 0.7303 -1.1811, -4.2598 0.7303 0.3858, -4.2598 0.7303 -1.1811, -4.0079 0.7047 0.3858, -4.0079 0.5571 -1.2598, -4.0079 0.6516 -1.2598, -4.2598 0.7047 0.3858, -4.2598 0.5571 -1.2598, -4.2598 0.6516 -1.2598, -4.0079 -0.5295 2.9132, -4.0079 -0.4508 2.8345, -4.2598 -0.5295 2.9132, -4.2598 -0.4508 2.8345, -4.0079 -0.624 2.9132, -4.2598 -0.624 2.9132, -4.0079 -0.7028 2.8345, -4.2598 -0.7028 2.8345, -4.0079 -0.7028 1.1378, -4.0079 -0.4508 1.1378, -4.2598 -0.4508 1.1378, -4.2598 -0.7028 1.1378, -4.0079 -0.4508 0.3858, -4.0079 -0.4508 -1.1811, -4.2598 -0.4508 0.3858, -4.2598 -0.4508 -1.1811, -4.2598 -0.7028 0.3858, -4.2598 -0.7028 -1.1811, -4.0079 -0.7028 0.3858, -4.0079 -0.7028 -1.1811, -4.0079 -0.5295 -1.2598, -4.0079 -0.624 -1.2598, -4.2598 -0.5295 -1.2598, -4.2598 -0.624 -1.2598, -2.8268 0.6516 2.9132, -2.8268 0.7303 2.8345, -3.0787 0.6516 2.9132, -3.0787 0.7303 2.8345, -2.8268 0.5571 2.9132, -3.0787 0.5571 2.9132, -2.8268 0.4784 2.8345, -3.0787 0.4784 2.8345, -2.8268 0.4784 1.1378, -2.8268 0.7303 1.1378, -3.0787 0.7303 1.1378, -3.0787 0.4784 1.1378, -3.0787 0.4784 0.3858, -3.0787 0.4784 -1.1811, -2.8268 0.4784 0.3858, -2.8268 0.4784 -1.1811, -2.8268 0.7303 0.3858, -2.8268 0.7303 -1.1811, -3.0787 0.7303 0.3858, -3.0787 0.7303 -1.1811, -2.8268 0.7047 0.3858, -2.8268 0.5571 -1.2598, -2.8268 0.6516 -1.2598, -3.0787 0.7047 0.3858, -3.0787 0.5571 -1.2598, -3.0787 0.6516 -1.2598, -2.8268 -0.5295 2.9132, -2.8268 -0.4508 2.8345, -3.0787 -0.5295 2.9132, -3.0787 -0.4508 2.8345, -2.8268 -0.624 2.9132, -3.0787 -0.624 2.9132, -2.8268 -0.7028 2.8345, -3.0787 -0.7028 2.8345, -2.8268 -0.7028 1.1378, -2.8268 -0.4508 1.1378, -3.0787 -0.4508 1.1378, -3.0787 -0.7028 1.1378, -2.8268 -0.4508 0.3858, -2.8268 -0.4508 -1.1811, -3.0787 -0.4508 0.3858, -3.0787 -0.4508 -1.1811, -3.0787 -0.7028 0.3858, -3.0787 -0.7028 -1.1811, -2.8268 -0.7028 0.3858, -2.8268 -0.7028 -1.1811, -2.8268 -0.5295 -1.2598, -2.8268 -0.624 -1.2598, -3.0787 -0.5295 -1.2598, -3.0787 -0.624 -1.2598, -1.6457 0.6516 2.9132, -1.6457 0.7303 2.8345, -1.8976 0.6516 2.9132, -1.8976 0.7303 2.8345, -1.6457 0.5571 2.9132, -1.8976 0.5571 2.9132, -1.6457 0.4784 2.8345, -1.8976 0.4784 2.8345, -1.6457 0.4784 1.1378, -1.6457 0.7303 1.1378, -1.8976 0.7303 1.1378, -1.8976 0.4784 1.1378, -1.8976 0.4784 0.3858, -1.8976 0.4784 -1.1811, -1.6457 0.4784 0.3858, -1.6457 0.4784 -1.1811, -1.6457 0.7303 0.3858, -1.6457 0.7303 -1.1811, -1.8976 0.7303 0.3858, -1.8976 0.7303 -1.1811, -1.6457 0.7047 0.3858, -1.6457 0.5571 -1.2598, -1.6457 0.6516 -1.2598, -1.8976 0.7047 0.3858, -1.8976 0.5571 -1.2598, -1.8976 0.6516 -1.2598, -1.6457 -0.5295 2.9132, -1.6457 -0.4508 2.8345, -1.8976 -0.5295 2.9132, -1.8976 -0.4508 2.8345, -1.6457 -0.624 2.9132, -1.8976 -0.624 2.9132, -1.6457 -0.7028 2.8345, -1.8976 -0.7028 2.8345, -1.6457 -0.7028 1.1378, -1.6457 -0.4508 1.1378, -1.8976 -0.4508 1.1378, -1.8976 -0.7028 1.1378, -1.6457 -0.4508 0.3858, -1.6457 -0.4508 -1.1811, -1.8976 -0.4508 0.3858, -1.8976 -0.4508 -1.1811, -1.8976 -0.7028 0.3858, -1.8976 -0.7028 -1.1811, -1.6457 -0.7028 0.3858, -1.6457 -0.7028 -1.1811, -1.6457 -0.624 -1.2598, -1.6457 -0.5295 -1.2598, -1.8976 -0.5295 -1.2598, -1.8976 -0.624 -1.2598, -0.4646 0.6516 2.9132, -0.4646 0.7303 2.8345, -0.7165 0.6516 2.9132, -0.7165 0.7303 2.8345, -0.4646 0.5571 2.9132, -0.7165 0.5571 2.9132, -0.4646 0.4784 2.8345, -0.7165 0.4784 2.8345, -0.4646 0.4784 1.1378, -0.4646 0.7303 1.1378, -0.7165 0.7303 1.1378, -0.7165 0.4784 1.1378, -0.7165 0.4784 0.3858, -0.7165 0.4784 -1.1811, -0.4646 0.4784 0.3858, -0.4646 0.4784 -1.1811, -0.4646 0.7303 0.3858, -0.4646 0.7303 -1.1811, -0.7165 0.7303 0.3858, -0.7165 0.7303 -1.1811, -0.4646 0.7047 0.3858, -0.4646 0.5571 -1.2598, -0.4646 0.6516 -1.2598, -0.7165 0.7047 0.3858, -0.7165 0.5571 -1.2598, -0.7165 0.6516 -1.2598, -0.4646 -0.5295 2.9132, -0.4646 -0.4508 2.8345, -0.7165 -0.5295 2.9132, -0.7165 -0.4508 2.8345, -0.4646 -0.624 2.9132, -0.7165 -0.624 2.9132, -0.4646 -0.7028 2.8345, -0.7165 -0.7028 2.8345, -0.4646 -0.7028 1.1378, -0.4646 -0.4508 1.1378, -0.7165 -0.4508 1.1378, -0.7165 -0.7028 1.1378, -0.4646 -0.4508 0.3858, -0.4646 -0.4508 -1.1811, -0.7165 -0.4508 0.3858, -0.7165 -0.4508 -1.1811, -0.7165 -0.7028 0.3858, -0.7165 -0.7028 -1.1811, -0.4646 -0.7028 0.3858, -0.4646 -0.7028 -1.1811, -0.4646 -0.624 -1.2598, -0.4646 -0.5295 -1.2598, -0.7165 -0.5295 -1.2598, -0.7165 -0.624 -1.2598, 0.7165 0.6516 2.9132, 0.7165 0.7303 2.8345, 0.4646 0.6516 2.9132, 0.4646 0.7303 2.8345, 0.7165 0.5571 2.9132, 0.4646 0.5571 2.9132, 0.7165 0.4784 2.8345, 0.4646 0.4784 2.8345, 0.7165 0.4784 1.1378, 0.7165 0.7303 1.1378, 0.4646 0.7303 1.1378, 0.4646 0.4784 1.1378, 0.4646 0.4784 0.3858, 0.4646 0.4784 -1.1811, 0.7165 0.4784 0.3858, 0.7165 0.4784 -1.1811, 0.7165 0.7303 0.3858, 0.7165 0.7303 -1.1811, 0.4646 0.7303 0.3858, 0.4646 0.7303 -1.1811, 0.7165 0.7047 0.3858, 0.7165 0.5571 -1.2598, 0.7165 0.6516 -1.2598, 0.4646 0.7047 0.3858, 0.4646 0.5571 -1.2598, 0.4646 0.6516 -1.2598, 0.7165 -0.5295 2.9132, 0.7165 -0.4508 2.8345, 0.4646 -0.5295 2.9132, 0.4646 -0.4508 2.8345, 0.7165 -0.624 2.9132, 0.4646 -0.624 2.9132, 0.7165 -0.7028 2.8345, 0.4646 -0.7028 2.8345, 0.7165 -0.7028 1.1378, 0.7165 -0.4508 1.1378, 0.4646 -0.4508 1.1378, 0.4646 -0.7028 1.1378, 0.7165 -0.4508 0.3858, 0.7165 -0.4508 -1.1811, 0.4646 -0.4508 0.3858, 0.4646 -0.4508 -1.1811, 0.4646 -0.7028 0.3858, 0.4646 -0.7028 -1.1811, 0.7165 -0.7028 0.3858, 0.7165 -0.7028 -1.1811, 0.7165 -0.5295 -1.2598, 0.7165 -0.624 -1.2598, 0.4646 -0.5295 -1.2598, 0.4646 -0.624 -1.2598, 1.8976 0.6516 2.9132, 1.8976 0.7303 2.8345, 1.6457 0.6516 2.9132, 1.6457 0.7303 2.8345, 1.8976 0.5571 2.9132, 1.6457 0.5571 2.9132, 1.8976 0.4784 2.8345, 1.6457 0.4784 2.8345, 1.8976 0.4784 1.1378, 1.8976 0.7303 1.1378, 1.6457 0.7303 1.1378, 1.6457 0.4784 1.1378, 1.6457 0.4784 0.3858, 1.6457 0.4784 -1.1811, 1.8976 0.4784 0.3858, 1.8976 0.4784 -1.1811, 1.8976 0.7303 0.3858, 1.8976 0.7303 -1.1811, 1.6457 0.7303 0.3858, 1.6457 0.7303 -1.1811, 1.8976 0.7047 0.3858, 1.8976 0.5571 -1.2598, 1.8976 0.6516 -1.2598, 1.6457 0.7047 0.3858, 1.6457 0.5571 -1.2598, 1.6457 0.6516 -1.2598, 1.8976 -0.5295 2.9132, 1.8976 -0.4508 2.8345, 1.6457 -0.5295 2.9132, 1.6457 -0.4508 2.8345, 1.8976 -0.624 2.9132, 1.6457 -0.624 2.9132, 1.8976 -0.7028 2.8345, 1.6457 -0.7028 2.8345, 1.8976 -0.7028 1.1378, 1.8976 -0.4508 1.1378, 1.6457 -0.4508 1.1378, 1.6457 -0.7028 1.1378, 1.8976 -0.4508 0.3858, 1.8976 -0.4508 -1.1811, 1.6457 -0.4508 0.3858, 1.6457 -0.4508 -1.1811, 1.6457 -0.7028 0.3858, 1.6457 -0.7028 -1.1811, 1.8976 -0.7028 0.3858, 1.8976 -0.7028 -1.1811, 1.8976 -0.5295 -1.2598, 1.8976 -0.624 -1.2598, 1.6457 -0.5295 -1.2598, 1.6457 -0.624 -1.2598, 3.0787 0.6516 2.9132, 3.0787 0.7303 2.8345, 2.8268 0.6516 2.9132, 2.8268 0.7303 2.8345, 3.0787 0.5571 2.9132, 2.8268 0.5571 2.9132, 3.0787 0.4784 2.8345, 2.8268 0.4784 2.8345, 3.0787 0.4784 1.1378, 3.0787 0.7303 1.1378, 2.8268 0.7303 1.1378, 2.8268 0.4784 1.1378, 2.8268 0.4784 0.3858, 2.8268 0.4784 -1.1811, 3.0787 0.4784 0.3858, 3.0787 0.4784 -1.1811, 3.0787 0.7303 0.3858, 3.0787 0.7303 -1.1811, 2.8268 0.7303 0.3858, 2.8268 0.7303 -1.1811, 3.0787 0.7047 0.3858, 3.0787 0.5571 -1.2598, 3.0787 0.6516 -1.2598, 2.8268 0.7047 0.3858, 2.8268 0.5571 -1.2598, 2.8268 0.6516 -1.2598, 3.0787 -0.5295 2.9132, 3.0787 -0.4508 2.8345, 2.8268 -0.5295 2.9132, 2.8268 -0.4508 2.8345, 3.0787 -0.624 2.9132, 2.8268 -0.624 2.9132, 3.0787 -0.7028 2.8345, 2.8268 -0.7028 2.8345, 3.0787 -0.7028 1.1378, 3.0787 -0.4508 1.1378, 2.8268 -0.4508 1.1378, 2.8268 -0.7028 1.1378, 3.0787 -0.4508 0.3858, 3.0787 -0.4508 -1.1811, 2.8268 -0.4508 0.3858, 2.8268 -0.4508 -1.1811, 2.8268 -0.7028 0.3858, 2.8268 -0.7028 -1.1811, 3.0787 -0.7028 0.3858, 3.0787 -0.7028 -1.1811, 3.0787 -0.624 -1.2598, 3.0787 -0.5295 -1.2598, 2.8268 -0.5295 -1.2598, 2.8268 -0.624 -1.2598, 4.2598 0.6516 2.9132, 4.2598 0.7303 2.8345, 4.0079 0.6516 2.9132, 4.0079 0.7303 2.8345, 4.2598 0.5571 2.9132, 4.0079 0.5571 2.9132, 4.2598 0.4784 2.8345, 4.0079 0.4784 2.8345, 4.2598 0.4784 1.1378, 4.2598 0.7303 1.1378, 4.0079 0.7303 1.1378, 4.0079 0.4784 1.1378, 4.0079 0.4784 0.3858, 4.0079 0.4784 -1.1811, 4.2598 0.4784 0.3858, 4.2598 0.4784 -1.1811, 4.2598 0.7303 0.3858, 4.2598 0.7303 -1.1811, 4.0079 0.7303 0.3858, 4.0079 0.7303 -1.1811, 4.2598 0.7047 0.3858, 4.2598 0.5571 -1.2598, 4.2598 0.6516 -1.2598, 4.0079 0.7047 0.3858, 4.0079 0.5571 -1.2598, 4.0079 0.6516 -1.2598, 4.2598 -0.5295 2.9132, 4.2598 -0.4508 2.8345, 4.0079 -0.5295 2.9132, 4.0079 -0.4508 2.8345, 4.2598 -0.624 2.9132, 4.0079 -0.624 2.9132, 4.2598 -0.7028 2.8345, 4.0079 -0.7028 2.8345, 4.2598 -0.7028 1.1378, 4.2598 -0.4508 1.1378, 4.0079 -0.4508 1.1378, 4.0079 -0.7028 1.1378, 4.2598 -0.4508 0.3858, 4.2598 -0.4508 -1.1811, 4.0079 -0.4508 0.3858, 4.0079 -0.4508 -1.1811, 4.0079 -0.7028 0.3858, 4.0079 -0.7028 -1.1811, 4.2598 -0.7028 0.3858, 4.2598 -0.7028 -1.1811, 4.2598 -0.624 -1.2598, 4.2598 -0.5295 -1.2598, 4.0079 -0.5295 -1.2598, 4.0079 -0.624 -1.2598, 5.4409 0.6516 2.9132, 5.4409 0.7303 2.8345, 5.189 0.6516 2.9132, 5.189 0.7303 2.8345, 5.4409 0.5571 2.9132, 5.189 0.5571 2.9132, 5.4409 0.4784 2.8345, 5.189 0.4784 2.8345, 5.4409 0.4784 1.1378, 5.4409 0.7303 1.1378, 5.189 0.7303 1.1378, 5.189 0.4784 1.1378, 5.189 0.4784 0.3858, 5.189 0.4784 -1.1811, 5.4409 0.4784 0.3858, 5.4409 0.4784 -1.1811, 5.4409 0.7303 0.3858, 5.4409 0.7303 -1.1811, 5.189 0.7303 0.3858, 5.189 0.7303 -1.1811, 5.4409 0.7047 0.3858, 5.4409 0.5571 -1.2598, 5.4409 0.6516 -1.2598, 5.189 0.7047 0.3858, 5.189 0.5571 -1.2598, 5.189 0.6516 -1.2598, 5.4409 -0.5295 2.9132, 5.4409 -0.4508 2.8345, 5.189 -0.5295 2.9132, 5.189 -0.4508 2.8345, 5.4409 -0.624 2.9132, 5.189 -0.624 2.9132, 5.4409 -0.7028 2.8345, 5.189 -0.7028 2.8345, 5.4409 -0.7028 1.1378, 5.4409 -0.4508 1.1378, 5.189 -0.4508 1.1378, 5.189 -0.7028 1.1378, 5.4409 -0.4508 0.3858, 5.4409 -0.4508 -1.1811, 5.189 -0.4508 0.3858, 5.189 -0.4508 -1.1811, 5.189 -0.7028 0.3858, 5.189 -0.7028 -1.1811, 5.4409 -0.7028 0.3858, 5.4409 -0.7028 -1.1811, 5.4409 -0.5295 -1.2598, 5.4409 -0.624 -1.2598, 5.189 -0.5295 -1.2598, 5.189 -0.624 -1.2598, 5.8437 0.6741 0.4252, 5.8412 0.6741 0.4252, 5.8437 0.6741 0.3858, 5.8412 0.6741 0.3858, 5.7506 0.4778 0.3858, 5.7503 0.4773 0.4252, 5.7503 0.4773 0.3858, 5.7695 0.4773 0.4252, 5.7695 0.4773 0.3858, 5.7698 0.4778 0.3858, 5.7986 0.5404 0.4252, 5.7986 0.5404 0.3858, 5.8878 0.5404 0.4252, 5.8878 0.5404 0.3858, 5.9175 0.4778 0.3858, 5.9178 0.4773 0.4252, 5.9178 0.4773 0.3858, 5.9371 0.4773 0.4252, 5.9371 0.4773 0.3858, 5.9368 0.4778 0.3858, 5.8079 0.5606 0.4252, 5.8783 0.5606 0.4252, 5.8426 0.6358 0.4252, 5.8079 0.5606 0.3858, 5.8426 0.6358 0.3858, 5.8783 0.5606 0.3858, 6.0628 0.4773 0.4252, 6.1238 0.4773 0.4252, 6.0628 0.4773 0.3858, 6.1238 0.4773 0.3858, 6.1238 0.4778 0.3858, 6.1238 0.6741 0.4252, 6.1238 0.6741 0.3858, 6.0841 0.6741 0.4252, 6.0841 0.6741 0.3858, 6.0216 0.667 0.4252, 6.0216 0.667 0.3858, 6.0525 0.6729 0.3858, 6.0525 0.6729 0.4252, 5.9623 0.5732 0.4252, 5.9623 0.5732 0.3858, 5.966 0.6042 0.3858, 5.966 0.6042 0.4252, 5.9861 0.6432 0.3858, 5.9861 0.6432 0.4252, 6.0523 0.4778 0.3858, 6.0415 0.4784 0.4252, 6.0415 0.4784 0.3858, 6.0019 0.4911 0.3858, 6.0019 0.4911 0.4252, 5.9734 0.5237 0.3858, 5.9734 0.5237 0.4252, 5.9831 0.5487 0.4252, 5.9992 0.5199 0.4252, 6.0273 0.5025 0.4252, 6.0552 0.4983 0.4252, 6.0836 0.4975 0.4252, 6.1061 0.4975 0.4252, 6.1061 0.6539 0.4252, 6.0923 0.6539 0.4252, 6.0619 0.653 0.4252, 6.0318 0.6484 0.4252, 6.01 0.6379 0.4252, 5.9886 0.6126 0.4252, 5.98 0.5733 0.4252, 6.1061 0.6539 0.3858, 6.1061 0.4975 0.3858, 6.0923 0.6539 0.3858, 6.0619 0.653 0.3858, 6.0318 0.6484 0.3858, 6.01 0.6379 0.3858, 5.9886 0.6126 0.3858, 5.98 0.5733 0.3858, 5.9831 0.5487 0.3858, 5.9992 0.5199 0.3858, 6.0273 0.5025 0.3858, 6.0552 0.4983 0.3858, 6.0836 0.4975 0.3858, 6.2702 0.4773 0.3858, 6.2702 0.4773 0.4252, 6.2702 0.4778 0.3858, 6.2702 0.6741 0.4252, 6.2702 0.6741 0.3858, 6.1591 0.6741 0.4252, 6.1591 0.6741 0.3858, 6.1591 0.6539 0.4252, 6.1591 0.6539 0.3858, 6.2525 0.6539 0.4252, 6.2525 0.6539 0.3858, 6.2525 0.5934 0.4252, 6.2525 0.5934 0.3858, 6.1591 0.5934 0.4252, 6.1591 0.5934 0.3858, 6.1591 0.5732 0.4252, 6.1591 0.5732 0.3858, 6.2525 0.5732 0.4252, 6.2525 0.5732 0.3858, 6.2525 0.4975 0.4252, 6.2525 0.4975 0.3858, 6.1591 0.4975 0.4252, 6.1591 0.4975 0.3858, 6.1591 0.4778 0.3858, 6.1591 0.4773 0.4252, 6.1591 0.4773 0.3858, 6.3106 0.638 0.4252, 6.3106 0.638 0.3858, 6.3168 0.6457 0.3858, 6.3168 0.6457 0.4252, 6.3283 0.6566 0.3858, 6.3283 0.6566 0.4252, 6.3484 0.6691 0.3858, 6.3484 0.6691 0.4252, 6.3965 0.6792 0.3858, 6.3965 0.6792 0.4252, 6.326 0.6262 0.4252, 6.326 0.6262 0.3858, 6.3976 0.659 0.4252, 6.3976 0.659 0.3858, 6.3894 0.6587 0.3858, 6.3894 0.6587 0.4252, 6.3765 0.6569 0.3858, 6.3765 0.6569 0.4252, 6.3579 0.6509 0.3858, 6.3579 0.6509 0.4252, 6.4847 0.5755 0.4252, 6.4847 0.5755 0.3858, 6.4844 0.5834 0.3858, 6.4844 0.5834 0.4252, 6.4717 0.6207 0.3858, 6.4717 0.6207 0.4252, 6.4412 0.6482 0.3858, 6.4412 0.6482 0.4252, 6.3963 0.4924 0.4252, 6.3963 0.4924 0.3858, 6.4087 0.4931 0.3858, 6.4087 0.4931 0.4252, 6.4474 0.5065 0.3858, 6.4474 0.5065 0.4252, 6.4745 0.5349 0.3858, 6.4745 0.5349 0.4252, 6.326 0.5252 0.4252, 6.326 0.5252 0.3858, 6.3574 0.5008 0.3858, 6.3574 0.5008 0.4252, 6.3106 0.5135 0.4252, 6.3106 0.5135 0.3858, 6.3483 0.4825 0.4252, 6.3962 0.4722 0.4252, 6.3962 0.4722 0.3858, 6.3864 0.4726 0.3858, 6.3864 0.4726 0.4252, 6.3707 0.4748 0.3858, 6.3707 0.4748 0.4252, 6.362 0.4778 0.3858, 6.3483 0.4825 0.3858, 6.4273 0.4778 0.3858, 6.4408 0.4802 0.4252, 6.4408 0.4802 0.3858, 6.46 0.4907 0.4252, 6.46 0.4907 0.3858, 6.4712 0.5 0.4252, 6.4712 0.5 0.3858, 6.4774 0.5067 0.4252, 6.4774 0.5067 0.3858, 6.5024 0.5768 0.4252, 6.5024 0.5768 0.3858, 6.4964 0.5394 0.3858, 6.4964 0.5394 0.4252, 6.4052 0.6789 0.3858, 6.4052 0.6789 0.4252, 6.456 0.6626 0.3858, 6.456 0.6626 0.4252, 6.4897 0.6271 0.3858, 6.4897 0.6271 0.4252, 6.6185 0.4773 0.3858, 6.6185 0.4773 0.4252, 6.6185 0.4778 0.3858, 6.6185 0.6741 0.4252, 6.6185 0.6741 0.3858, 6.6008 0.6741 0.4252, 6.6008 0.6741 0.3858, 6.6008 0.4975 0.4252, 6.6008 0.4975 0.3858, 6.5251 0.4975 0.4252, 6.5251 0.4975 0.3858, 6.5251 0.4778 0.3858, 6.5251 0.4773 0.4252, 6.5251 0.4773 0.3858
            ]
        }
        coordIndex [
            0,1,2,-1,2,1,3,-1,4,0,5,-1,5,0,2,-1,6,4,7,-1,7,4,5,-1,4,6,0,-1,0,6,8,-1,0,8,1,-1,1,8,9,-1,2,3,5,-1,5,3,10,-1,5,10,7,-1,7,10,11,-1,3,1,10,-1,10,1,9,-1,6,7,8,-1,8,7,11,-1,12,13,14,-1,14,13,15,-1,16,17,18,-1,18,17,19,-1,17,16,20,-1,21,22,15,-1,15,22,17,-1,15,17,14,-1,14,17,20,-1,23,18,19,-1,12,23,13,-1,13,23,19,-1,13,19,24,-1,24,19,25,-1,21,15,24,-1,24,15,13,-1,22,21,25,-1,25,21,24,-1,17,22,19,-1,19,22,25,-1,26,27,28,-1,28,27,29,-1,30,26,31,-1,31,26,28,-1,32,30,33,-1,33,30,31,-1,30,32,26,-1,26,32,34,-1,26,34,27,-1,27,34,35,-1,28,29,31,-1,31,29,36,-1,31,36,33,-1,33,36,37,-1,34,32,37,-1,37,32,33,-1,36,29,35,-1,35,29,27,-1,38,39,40,-1,40,39,41,-1,42,43,44,-1,44,43,45,-1,38,44,39,-1,39,44,45,-1,39,45,46,-1,46,45,47,-1,48,49,41,-1,41,49,43,-1,41,43,40,-1,40,43,42,-1,47,45,49,-1,49,45,43,-1,46,47,48,-1,48,47,49,-1,39,46,41,-1,41,46,48,-1,50,51,52,-1,52,51,53,-1,54,50,55,-1,55,50,52,-1,56,54,57,-1,57,54,55,-1,54,56,50,-1,50,56,58,-1,50,58,51,-1,51,58,59,-1,52,53,55,-1,55,53,60,-1,55,60,57,-1,57,60,61,-1,53,51,60,-1,60,51,59,-1,56,57,58,-1,58,57,61,-1,62,63,64,-1,64,63,65,-1,66,67,68,-1,68,67,69,-1,67,66,70,-1,71,72,65,-1,65,72,67,-1,65,67,64,-1,64,67,70,-1,73,68,69,-1,62,73,63,-1,63,73,69,-1,63,69,74,-1,74,69,75,-1,71,65,74,-1,74,65,63,-1,72,71,75,-1,75,71,74,-1,67,72,69,-1,69,72,75,-1,76,77,78,-1,78,77,79,-1,80,76,81,-1,81,76,78,-1,82,80,83,-1,83,80,81,-1,80,82,76,-1,76,82,84,-1,76,84,77,-1,77,84,85,-1,78,79,81,-1,81,79,86,-1,81,86,83,-1,83,86,87,-1,84,82,87,-1,87,82,83,-1,86,79,85,-1,85,79,77,-1,88,89,90,-1,90,89,91,-1,92,93,94,-1,94,93,95,-1,88,94,89,-1,89,94,95,-1,89,95,96,-1,96,95,97,-1,98,99,91,-1,91,99,93,-1,91,93,90,-1,90,93,92,-1,97,95,99,-1,99,95,93,-1,96,97,98,-1,98,97,99,-1,89,96,91,-1,91,96,98,-1,100,101,102,-1,102,101,103,-1,104,100,105,-1,105,100,102,-1,106,104,107,-1,107,104,105,-1,104,106,100,-1,100,106,108,-1,100,108,101,-1,101,108,109,-1,102,103,105,-1,105,103,110,-1,105,110,107,-1,107,110,111,-1,103,101,110,-1,110,101,109,-1,106,107,108,-1,108,107,111,-1,112,113,114,-1,114,113,115,-1,116,117,118,-1,118,117,119,-1,117,116,120,-1,121,122,115,-1,115,122,117,-1,115,117,114,-1,114,117,120,-1,123,118,119,-1,112,123,113,-1,113,123,119,-1,113,119,124,-1,124,119,125,-1,121,115,124,-1,124,115,113,-1,122,121,125,-1,125,121,124,-1,117,122,119,-1,119,122,125,-1,126,127,128,-1,128,127,129,-1,130,126,131,-1,131,126,128,-1,132,130,133,-1,133,130,131,-1,130,132,126,-1,126,132,134,-1,126,134,127,-1,127,134,135,-1,128,129,131,-1,131,129,136,-1,131,136,133,-1,133,136,137,-1,134,132,137,-1,137,132,133,-1,136,129,135,-1,135,129,127,-1,138,139,140,-1,140,139,141,-1,142,143,144,-1,144,143,145,-1,146,147,145,-1,145,147,139,-1,145,139,144,-1,144,139,138,-1,148,149,141,-1,141,149,143,-1,141,143,140,-1,140,143,142,-1,146,145,149,-1,149,145,143,-1,147,146,148,-1,148,146,149,-1,139,147,141,-1,141,147,148,-1,150,151,152,-1,152,151,153,-1,154,150,155,-1,155,150,152,-1,156,154,157,-1,157,154,155,-1,154,156,150,-1,150,156,158,-1,150,158,151,-1,151,158,159,-1,152,153,155,-1,155,153,160,-1,155,160,157,-1,157,160,161,-1,153,151,160,-1,160,151,159,-1,156,157,158,-1,158,157,161,-1,162,163,164,-1,164,163,165,-1,166,167,168,-1,168,167,169,-1,167,166,170,-1,171,172,165,-1,165,172,167,-1,165,167,164,-1,164,167,170,-1,173,168,169,-1,162,173,163,-1,163,173,169,-1,163,169,174,-1,174,169,175,-1,171,165,174,-1,174,165,163,-1,172,171,175,-1,175,171,174,-1,167,172,169,-1,169,172,175,-1,176,177,178,-1,178,177,179,-1,180,176,181,-1,181,176,178,-1,182,180,183,-1,183,180,181,-1,180,182,176,-1,176,182,184,-1,176,184,177,-1,177,184,185,-1,178,179,181,-1,181,179,186,-1,181,186,183,-1,183,186,187,-1,184,182,187,-1,187,182,183,-1,186,179,185,-1,185,179,177,-1,188,189,190,-1,190,189,191,-1,192,193,194,-1,194,193,195,-1,196,197,195,-1,195,197,189,-1,195,189,194,-1,194,189,188,-1,198,199,191,-1,191,199,193,-1,191,193,190,-1,190,193,192,-1,196,195,199,-1,199,195,193,-1,197,196,198,-1,198,196,199,-1,189,197,191,-1,191,197,198,-1,200,201,202,-1,202,201,203,-1,204,200,205,-1,205,200,202,-1,206,204,207,-1,207,204,205,-1,204,206,200,-1,200,206,208,-1,200,208,201,-1,201,208,209,-1,202,203,205,-1,205,203,210,-1,205,210,207,-1,207,210,211,-1,203,201,210,-1,210,201,209,-1,206,207,208,-1,208,207,211,-1,212,213,214,-1,214,213,215,-1,216,217,218,-1,218,217,219,-1,217,216,220,-1,221,222,215,-1,215,222,217,-1,215,217,214,-1,214,217,220,-1,223,218,219,-1,212,223,213,-1,213,223,219,-1,213,219,224,-1,224,219,225,-1,221,215,224,-1,224,215,213,-1,222,221,225,-1,225,221,224,-1,217,222,219,-1,219,222,225,-1,226,227,228,-1,228,227,229,-1,230,226,231,-1,231,226,228,-1,232,230,233,-1,233,230,231,-1,230,232,226,-1,226,232,234,-1,226,234,227,-1,227,234,235,-1,228,229,231,-1,231,229,236,-1,231,236,233,-1,233,236,237,-1,234,232,237,-1,237,232,233,-1,236,229,235,-1,235,229,227,-1,238,239,240,-1,240,239,241,-1,242,243,244,-1,244,243,245,-1,238,244,239,-1,239,244,245,-1,239,245,246,-1,246,245,247,-1,248,249,241,-1,241,249,243,-1,241,243,240,-1,240,243,242,-1,247,245,249,-1,249,245,243,-1,246,247,248,-1,248,247,249,-1,239,246,241,-1,241,246,248,-1,250,251,252,-1,252,251,253,-1,254,250,255,-1,255,250,252,-1,256,254,257,-1,257,254,255,-1,254,256,250,-1,250,256,258,-1,250,258,251,-1,251,258,259,-1,252,253,255,-1,255,253,260,-1,255,260,257,-1,257,260,261,-1,253,251,260,-1,260,251,259,-1,256,257,258,-1,258,257,261,-1,262,263,264,-1,264,263,265,-1,266,267,268,-1,268,267,269,-1,267,266,270,-1,271,272,265,-1,265,272,267,-1,265,267,264,-1,264,267,270,-1,273,268,269,-1,262,273,263,-1,263,273,269,-1,263,269,274,-1,274,269,275,-1,271,265,274,-1,274,265,263,-1,272,271,275,-1,275,271,274,-1,267,272,269,-1,269,272,275,-1,276,277,278,-1,278,277,279,-1,280,276,281,-1,281,276,278,-1,282,280,283,-1,283,280,281,-1,280,282,276,-1,276,282,284,-1,276,284,277,-1,277,284,285,-1,278,279,281,-1,281,279,286,-1,281,286,283,-1,283,286,287,-1,284,282,287,-1,287,282,283,-1,286,279,285,-1,285,279,277,-1,288,289,290,-1,290,289,291,-1,292,293,294,-1,294,293,295,-1,288,294,289,-1,289,294,295,-1,289,295,296,-1,296,295,297,-1,298,299,291,-1,291,299,293,-1,291,293,290,-1,290,293,292,-1,297,295,299,-1,299,295,293,-1,296,297,298,-1,298,297,299,-1,289,296,291,-1,291,296,298,-1,300,301,302,-1,302,301,303,-1,304,300,305,-1,305,300,302,-1,306,304,307,-1,307,304,305,-1,304,306,300,-1,300,306,308,-1,300,308,301,-1,301,308,309,-1,302,303,305,-1,305,303,310,-1,305,310,307,-1,307,310,311,-1,303,301,310,-1,310,301,309,-1,306,307,308,-1,308,307,311,-1,312,313,314,-1,314,313,315,-1,316,317,318,-1,318,317,319,-1,317,316,320,-1,321,322,315,-1,315,322,317,-1,315,317,314,-1,314,317,320,-1,323,318,319,-1,312,323,313,-1,313,323,319,-1,313,319,324,-1,324,319,325,-1,321,315,324,-1,324,315,313,-1,322,321,325,-1,325,321,324,-1,317,322,319,-1,319,322,325,-1,326,327,328,-1,328,327,329,-1,330,326,331,-1,331,326,328,-1,332,330,333,-1,333,330,331,-1,330,332,326,-1,326,332,334,-1,326,334,327,-1,327,334,335,-1,328,329,331,-1,331,329,336,-1,331,336,333,-1,333,336,337,-1,334,332,337,-1,337,332,333,-1,336,329,335,-1,335,329,327,-1,338,339,340,-1,340,339,341,-1,342,343,344,-1,344,343,345,-1,346,347,345,-1,345,347,339,-1,345,339,344,-1,344,339,338,-1,348,349,341,-1,341,349,343,-1,341,343,340,-1,340,343,342,-1,346,345,349,-1,349,345,343,-1,347,346,348,-1,348,346,349,-1,339,347,341,-1,341,347,348,-1,350,351,352,-1,352,351,353,-1,354,350,355,-1,355,350,352,-1,356,354,357,-1,357,354,355,-1,354,356,350,-1,350,356,358,-1,350,358,351,-1,351,358,359,-1,352,353,355,-1,355,353,360,-1,355,360,357,-1,357,360,361,-1,353,351,360,-1,360,351,359,-1,356,357,358,-1,358,357,361,-1,362,363,364,-1,364,363,365,-1,366,367,368,-1,368,367,369,-1,367,366,370,-1,371,372,365,-1,365,372,367,-1,365,367,364,-1,364,367,370,-1,373,368,369,-1,362,373,363,-1,363,373,369,-1,363,369,374,-1,374,369,375,-1,371,365,374,-1,374,365,363,-1,372,371,375,-1,375,371,374,-1,367,372,369,-1,369,372,375,-1,376,377,378,-1,378,377,379,-1,380,376,381,-1,381,376,378,-1,382,380,383,-1,383,380,381,-1,380,382,376,-1,376,382,384,-1,376,384,377,-1,377,384,385,-1,378,379,381,-1,381,379,386,-1,381,386,383,-1,383,386,387,-1,384,382,387,-1,387,382,383,-1,386,379,385,-1,385,379,377,-1,388,389,390,-1,390,389,391,-1,392,393,394,-1,394,393,395,-1,396,397,395,-1,395,397,389,-1,395,389,394,-1,394,389,388,-1,398,399,391,-1,391,399,393,-1,391,393,390,-1,390,393,392,-1,396,395,399,-1,399,395,393,-1,397,396,398,-1,398,396,399,-1,389,397,391,-1,391,397,398,-1,400,401,402,-1,402,401,403,-1,404,400,405,-1,405,400,402,-1,406,404,407,-1,407,404,405,-1,404,406,400,-1,400,406,408,-1,400,408,401,-1,401,408,409,-1,402,403,405,-1,405,403,410,-1,405,410,407,-1,407,410,411,-1,403,401,410,-1,410,401,409,-1,406,407,408,-1,408,407,411,-1,412,413,414,-1,414,413,415,-1,416,417,418,-1,418,417,419,-1,417,416,420,-1,421,422,415,-1,415,422,417,-1,415,417,414,-1,414,417,420,-1,423,418,419,-1,412,423,413,-1,413,423,419,-1,413,419,424,-1,424,419,425,-1,421,415,424,-1,424,415,413,-1,422,421,425,-1,425,421,424,-1,417,422,419,-1,419,422,425,-1,426,427,428,-1,428,427,429,-1,430,426,431,-1,431,426,428,-1,432,430,433,-1,433,430,431,-1,430,432,426,-1,426,432,434,-1,426,434,427,-1,427,434,435,-1,428,429,431,-1,431,429,436,-1,431,436,433,-1,433,436,437,-1,434,432,437,-1,437,432,433,-1,436,429,435,-1,435,429,427,-1,438,439,440,-1,440,439,441,-1,442,443,444,-1,444,443,445,-1,438,444,439,-1,439,444,445,-1,439,445,446,-1,446,445,447,-1,448,449,441,-1,441,449,443,-1,441,443,440,-1,440,443,442,-1,447,445,449,-1,449,445,443,-1,446,447,448,-1,448,447,449,-1,439,446,441,-1,441,446,448,-1,450,451,452,-1,452,451,453,-1,453,451,454,-1,454,451,455,-1,454,455,456,-1,455,457,456,-1,456,457,458,-1,458,457,459,-1,459,457,460,-1,459,460,461,-1,460,462,461,-1,461,462,463,-1,463,462,464,-1,464,462,465,-1,464,465,466,-1,465,467,466,-1,466,467,468,-1,468,467,469,-1,469,467,450,-1,469,450,452,-1,470,455,451,-1,450,471,451,-1,451,471,472,-1,451,472,470,-1,467,465,462,-1,457,455,460,-1,460,455,470,-1,460,470,462,-1,462,470,471,-1,462,471,467,-1,467,471,450,-1,470,472,473,-1,473,472,474,-1,471,470,475,-1,475,470,473,-1,472,471,474,-1,474,471,475,-1,476,477,478,-1,478,477,479,-1,479,477,480,-1,480,477,481,-1,480,481,482,-1,481,483,482,-1,482,483,484,-1,485,486,487,-1,485,487,488,-1,488,487,484,-1,488,484,483,-1,489,490,491,-1,489,491,492,-1,492,491,493,-1,492,493,494,-1,494,493,486,-1,494,486,485,-1,476,478,495,-1,476,495,496,-1,495,497,496,-1,496,497,498,-1,496,498,499,-1,499,498,500,-1,499,500,501,-1,501,500,490,-1,501,490,489,-1,502,503,499,-1,499,503,504,-1,499,504,496,-1,496,504,505,-1,496,505,476,-1,476,505,506,-1,476,506,477,-1,477,506,507,-1,477,507,481,-1,481,507,508,-1,481,508,483,-1,483,508,509,-1,483,509,488,-1,488,509,510,-1,488,510,485,-1,485,510,511,-1,485,511,494,-1,494,511,512,-1,494,512,492,-1,492,512,513,-1,492,513,489,-1,489,513,514,-1,489,514,501,-1,501,514,502,-1,501,502,499,-1,508,507,515,-1,515,507,516,-1,509,508,517,-1,517,508,515,-1,509,517,518,-1,509,518,510,-1,510,518,519,-1,510,519,511,-1,511,519,520,-1,511,520,512,-1,512,520,521,-1,512,521,513,-1,513,521,522,-1,513,522,514,-1,514,522,523,-1,514,523,502,-1,502,523,524,-1,502,524,503,-1,503,524,525,-1,503,525,504,-1,504,525,526,-1,504,526,505,-1,505,526,527,-1,505,527,506,-1,507,506,516,-1,516,506,527,-1,528,529,530,-1,530,529,531,-1,530,531,532,-1,531,533,532,-1,532,533,534,-1,533,535,534,-1,534,535,536,-1,535,537,536,-1,536,537,538,-1,537,539,538,-1,538,539,540,-1,539,541,540,-1,540,541,542,-1,541,543,542,-1,542,543,544,-1,543,545,544,-1,544,545,546,-1,545,547,546,-1,546,547,548,-1,547,549,548,-1,548,549,550,-1,550,549,551,-1,551,549,552,-1,551,552,553,-1,552,529,553,-1,553,529,528,-1,529,552,549,-1,549,547,529,-1,529,547,545,-1,529,545,531,-1,535,533,537,-1,537,533,531,-1,537,531,539,-1,539,531,545,-1,539,545,541,-1,541,545,543,-1,554,555,556,-1,554,556,557,-1,557,556,558,-1,557,558,559,-1,559,558,560,-1,559,560,561,-1,561,560,562,-1,561,562,563,-1,554,564,555,-1,555,564,565,-1,566,567,568,-1,566,568,569,-1,569,568,570,-1,569,570,571,-1,571,570,572,-1,571,572,573,-1,573,572,565,-1,573,565,564,-1,574,575,576,-1,574,576,577,-1,577,576,578,-1,577,578,579,-1,579,578,580,-1,579,580,581,-1,581,580,567,-1,581,567,566,-1,582,583,584,-1,582,584,585,-1,585,584,586,-1,585,586,587,-1,587,586,588,-1,587,588,589,-1,589,588,575,-1,589,575,574,-1,590,591,592,-1,590,592,593,-1,593,592,583,-1,593,583,582,-1,590,594,591,-1,591,594,595,-1,595,594,596,-1,597,598,599,-1,597,599,600,-1,600,599,601,-1,600,601,602,-1,602,601,603,-1,602,603,596,-1,596,603,604,-1,596,604,595,-1,598,597,605,-1,605,597,606,-1,605,606,607,-1,607,606,608,-1,607,608,609,-1,609,608,610,-1,609,610,611,-1,611,610,612,-1,611,612,613,-1,614,615,616,-1,614,616,617,-1,617,616,613,-1,617,613,612,-1,563,562,618,-1,563,618,619,-1,619,618,620,-1,619,620,621,-1,621,620,622,-1,621,622,623,-1,623,622,615,-1,623,615,614,-1,594,590,596,-1,596,590,593,-1,614,617,589,-1,589,617,587,-1,587,617,612,-1,587,612,610,-1,564,554,557,-1,564,557,573,-1,573,557,559,-1,573,559,561,-1,610,608,587,-1,587,608,606,-1,587,606,585,-1,585,606,597,-1,585,597,582,-1,582,597,600,-1,582,600,593,-1,593,600,602,-1,593,602,596,-1,589,574,614,-1,614,574,577,-1,614,577,623,-1,623,577,579,-1,623,579,621,-1,621,579,581,-1,621,581,619,-1,619,581,566,-1,619,566,563,-1,563,566,569,-1,563,569,561,-1,561,569,571,-1,561,571,573,-1,624,625,626,-1,626,625,627,-1,626,627,628,-1,627,629,628,-1,628,629,630,-1,629,631,630,-1,630,631,632,-1,631,633,632,-1,632,633,634,-1,634,633,635,-1,635,633,636,-1,635,636,637,-1,636,625,637,-1,637,625,624,-1,629,627,631,-1,631,627,625,-1,631,625,633,-1,633,625,636,-1,
        ]
    }
}
Shape{
    appearance Appearance {
        material  Material 	{
            diffuseColor 0.11372549019607843 0.11372549019607843 0.11372549019607843
            specularColor 0.058823529411764705 0.058823529411764705 0.058823529411764705
            ambientIntensity 0.1137
            transparency 0.0
            shininess 0.5
        }
    }
    geometry IndexedFaceSet {
        ccw TRUE
        solid FALSE
        coord DEF co Coordinate {
            point [
                5.8426 0.6358 0.3858, 5.8783 0.5606 0.3858, 5.8079 0.5606 0.3858, 6.1061 0.6539 0.3858, 6.1061 0.4975 0.3858, 6.0923 0.6539 0.3858, 6.0836 0.4975 0.3858, 6.0619 0.653 0.3858, 6.0552 0.4983 0.3858, 6.0318 0.6484 0.3858, 6.0273 0.5025 0.3858, 5.9992 0.5199 0.3858, 5.9831 0.5487 0.3858, 5.98 0.5733 0.3858, 5.9886 0.6126 0.3858, 6.01 0.6379 0.3858, 6.0335 1.0821 3.3032, 6.624 1.0821 3.3032, 6.0335 1.0821 3.8937, 6.0335 -0.788 3.3032, 6.0335 -0.788 3.8937, 6.624 -0.788 3.3032, 6.0335 0.3144 2.2443, 6.0335 0.629 2.2443, 6.0335 0.629 3.3032, 6.0335 -0.3425 3.3032, 6.0335 -0.3425 2.2443, 6.0335 -0.0223 2.2443, 6.0335 -0.0223 1.3666, 6.0335 0.3144 1.3666, 6.0335 0.0138 3.8937, -6.0335 1.0821 3.3032, -6.0335 1.0821 3.8937, -6.624 1.0821 3.3032, -6.0335 -0.788 3.3032, -6.624 -0.788 3.3032, -6.0335 -0.788 3.8937, -6.0335 -0.0223 2.2443, -6.0335 -0.3425 2.2443, -6.0335 -0.3425 3.3032, -6.0335 0.629 3.3032, -6.0335 0.629 2.2443, -6.0335 0.3144 2.2443, -6.0335 0.3144 1.3666, -6.0335 -0.0223 1.3666, -6.0335 0.0138 3.8937, -6.624 0.629 3.3032, -6.624 -0.0223 2.2443, -6.624 -0.3425 2.2443, -6.624 -0.0223 1.3666, -6.624 0.3144 1.3666, -6.624 0.3144 2.2443, -6.624 0.629 2.2443, -6.624 -0.3425 3.3032, 6.624 0.629 2.2443, 6.624 0.3144 2.2443, 6.624 0.3144 1.3666, 6.624 -0.0223 1.3666, 6.624 -0.0223 2.2443, 6.624 -0.3425 2.2443, 6.624 0.629 3.3032, 6.624 -0.3425 3.3032, -5.8661 0.3681 1.1378, -5.8661 0.3681 3.8937, -5.5512 0.0532 1.1378, -5.5512 0.0532 3.8937, -1.1417 0.3681 1.1378, -1.1417 0.3681 3.8937, -0.8268 0.0532 1.1378, -0.8268 0.0532 3.8937, -2.7165 0.0532 1.1378, -2.7165 0.0532 3.8937, -2.4016 0.3681 1.1378, -2.4016 0.3681 3.8937, -4.685 0.3681 1.1378, -4.685 0.3681 3.8937, -4.3701 0.0532 1.1378, -4.3701 0.0532 3.8937, -5.0787 -1.1279 1.1378, -5.0787 -1.1279 3.8937, -4.7638 -0.813 1.1378, -4.7638 -0.813 3.8937, -2.7165 -1.1279 1.1378, -2.7165 -1.1279 3.8937, -2.4016 -0.813 1.1378, -2.4016 -0.813 3.8937, -3.8976 -1.1279 1.1378, -3.8976 -1.1279 3.8937, -3.5827 -0.813 1.1378, -3.5827 -0.813 3.8937, -1.5354 -1.1279 1.1378, -1.5354 -1.1279 3.8937, -1.2205 -0.813 1.1378, -1.2205 -0.813 3.8937, -1.5354 0.0532 1.1378, -1.5354 0.0532 3.8937, -1.2205 0.3681 1.1378, -1.2205 0.3681 3.8937, 0.0394 0.3681 1.1378, 0.0394 0.3681 3.8937, 0.3543 0.0532 1.1378, 0.3543 0.0532 3.8937, 0.0394 -0.813 1.1378, 0.0394 -0.813 3.8937, 0.3543 -1.1279 1.1378, 0.3543 -1.1279 3.8937, 1.2205 0.3681 1.1378, 1.2205 0.3681 3.8937, 1.5354 0.0532 1.1378, 1.5354 0.0532 3.8937, 2.0079 -1.1279 1.1378, 2.0079 -1.1279 3.8937, 2.3228 -0.813 1.1378, 2.3228 -0.813 3.8937, 6.4716 0.8508 -0.0079, 6.4635 0.8527 -0.2677, 6.4961 0.8484 -0.2677, 6.4635 0.8527 -0.0079, 6.4331 0.8653 -0.0079, 6.4331 0.8653 -0.2677, 6.407 0.8853 -0.0079, 6.407 0.8853 -0.2677, 6.387 0.9114 -0.0079, 6.387 0.9114 -0.2677, 6.3744 0.9418 -0.0079, 6.3744 0.9418 -0.2677, 6.3701 0.9744 -0.0079, 6.3701 0.9744 -0.2677, 6.3744 1.007 -0.0079, 6.3744 1.007 -0.2677, 6.387 1.0374 -0.0079, 6.387 1.0374 -0.2677, 6.407 1.0635 -0.0079, 6.407 1.0635 -0.2677, 6.4331 1.0835 -0.0079, 6.4331 1.0835 -0.2677, 6.4635 1.0961 -0.0079, 6.4635 1.0961 -0.2677, 6.4961 1.1004 -0.0079, 6.4961 1.1004 -0.2677, 6.5287 1.0961 -0.0079, 6.5287 1.0961 -0.2677, 6.5591 1.0835 -0.0079, 6.5591 1.0835 -0.2677, 6.5851 1.0635 -0.0079, 6.5851 1.0635 -0.2677, 6.6052 1.0374 -0.0079, 6.6052 1.0374 -0.2677, 6.6178 1.007 -0.0079, 6.6178 1.007 -0.2677, 6.622 0.9744 -0.0079, 6.622 0.9744 -0.2677, 6.6178 0.9418 -0.0079, 6.6178 0.9418 -0.2677, 6.6052 0.9114 -0.0079, 6.6052 0.9114 -0.2677, 6.5851 0.8853 -0.0079, 6.5851 0.8853 -0.2677, 6.5591 0.8653 -0.0079, 6.5591 0.8653 -0.2677, 6.5287 0.8527 -0.0079, 6.5287 0.8527 -0.2677, 6.5205 0.8508 -0.0079, 6.4961 0.8508 -0.0079, 6.4551 0.9508 -0.3465, 6.4504 0.9622 -0.3465, 6.4961 0.9744 -0.3465, 6.4488 0.9744 -0.3465, 6.4504 0.9866 -0.3465, 6.4838 0.9288 -0.3465, 6.4724 0.9335 -0.3465, 6.4627 0.941 -0.3465, 6.5197 0.9335 -0.3465, 6.5083 0.9288 -0.3465, 6.4961 0.9272 -0.3465, 6.5417 0.9622 -0.3465, 6.537 0.9508 -0.3465, 6.5295 0.941 -0.3465, 6.537 0.998 -0.3465, 6.5417 0.9866 -0.3465, 6.5433 0.9744 -0.3465, 6.5083 1.02 -0.3465, 6.5197 1.0153 -0.3465, 6.5295 1.0078 -0.3465, 6.4724 1.0153 -0.3465, 6.4838 1.02 -0.3465, 6.4961 1.0217 -0.3465, 6.4551 0.998 -0.3465, 6.4627 1.0078 -0.3465, -6.5205 0.8508 -0.0079, -6.5287 0.8527 -0.2677, -6.4961 0.8484 -0.2677, -6.5287 0.8527 -0.0079, -6.5591 0.8653 -0.0079, -6.5591 0.8653 -0.2677, -6.5851 0.8853 -0.0079, -6.5851 0.8853 -0.2677, -6.6052 0.9114 -0.0079, -6.6052 0.9114 -0.2677, -6.6178 0.9418 -0.0079, -6.6178 0.9418 -0.2677, -6.622 0.9744 -0.0079, -6.622 0.9744 -0.2677, -6.6178 1.007 -0.0079, -6.6178 1.007 -0.2677, -6.6052 1.0374 -0.0079, -6.6052 1.0374 -0.2677, -6.5851 1.0635 -0.0079, -6.5851 1.0635 -0.2677, -6.5591 1.0835 -0.0079, -6.5591 1.0835 -0.2677, -6.5287 1.0961 -0.0079, -6.5287 1.0961 -0.2677, -6.4961 1.1004 -0.0079, -6.4961 1.1004 -0.2677, -6.4635 1.0961 -0.0079, -6.4635 1.0961 -0.2677, -6.4331 1.0835 -0.0079, -6.4331 1.0835 -0.2677, -6.407 1.0635 -0.0079, -6.407 1.0635 -0.2677, -6.387 1.0374 -0.0079, -6.387 1.0374 -0.2677, -6.3744 1.007 -0.0079, -6.3744 1.007 -0.2677, -6.3701 0.9744 -0.0079, -6.3701 0.9744 -0.2677, -6.3744 0.9418 -0.0079, -6.3744 0.9418 -0.2677, -6.387 0.9114 -0.0079, -6.387 0.9114 -0.2677, -6.407 0.8853 -0.0079, -6.407 0.8853 -0.2677, -6.4331 0.8653 -0.0079, -6.4331 0.8653 -0.2677, -6.4635 0.8527 -0.0079, -6.4635 0.8527 -0.2677, -6.4716 0.8508 -0.0079, -6.4961 0.8508 -0.0079, -6.4551 0.998 -0.3465, -6.4504 0.9866 -0.3465, -6.4961 0.9744 -0.3465, -6.4488 0.9744 -0.3465, -6.4504 0.9622 -0.3465, -6.4838 1.02 -0.3465, -6.4724 1.0153 -0.3465, -6.4627 1.0078 -0.3465, -6.5197 1.0153 -0.3465, -6.5083 1.02 -0.3465, -6.4961 1.0217 -0.3465, -6.5417 0.9866 -0.3465, -6.537 0.998 -0.3465, -6.5295 1.0078 -0.3465, -6.537 0.9508 -0.3465, -6.5417 0.9622 -0.3465, -6.5433 0.9744 -0.3465, -6.5083 0.9288 -0.3465, -6.5197 0.9335 -0.3465, -6.5295 0.941 -0.3465, -6.4724 0.9335 -0.3465, -6.4838 0.9288 -0.3465, -6.4961 0.9272 -0.3465, -6.4551 0.9508 -0.3465, -6.4627 0.941 -0.3465
            ]
        }
        coordIndex [
            0,1,2,-1,3,4,5,-1,5,4,6,-1,5,6,7,-1,7,6,8,-1,7,8,9,-1,10,11,8,-1,8,11,12,-1,8,12,13,-1,13,14,8,-1,8,14,15,-1,8,15,9,-1,16,17,18,-1,19,20,21,-1,22,23,24,-1,25,26,27,-1,27,28,29,-1,16,18,24,-1,24,18,30,-1,20,19,30,-1,30,19,25,-1,30,25,24,-1,24,25,27,-1,24,27,22,-1,22,27,29,-1,31,32,33,-1,34,35,36,-1,37,38,39,-1,40,41,42,-1,42,43,44,-1,34,36,39,-1,39,36,45,-1,32,31,45,-1,45,31,40,-1,45,40,39,-1,39,40,42,-1,39,42,37,-1,37,42,44,-1,31,33,40,-1,40,33,46,-1,37,47,38,-1,38,47,48,-1,44,49,37,-1,37,49,47,-1,43,50,44,-1,44,50,49,-1,42,51,43,-1,43,51,50,-1,41,52,42,-1,42,52,51,-1,38,48,39,-1,39,48,53,-1,40,46,41,-1,41,46,52,-1,23,22,54,-1,54,22,55,-1,22,29,55,-1,55,29,56,-1,29,28,56,-1,56,28,57,-1,28,27,57,-1,57,27,58,-1,27,26,58,-1,58,26,59,-1,24,23,60,-1,60,23,54,-1,26,25,59,-1,59,25,61,-1,62,63,64,-1,64,63,65,-1,66,67,68,-1,68,67,69,-1,70,71,72,-1,72,71,73,-1,74,75,76,-1,76,75,77,-1,78,79,80,-1,80,79,81,-1,82,83,84,-1,84,83,85,-1,86,87,88,-1,88,87,89,-1,90,91,92,-1,92,91,93,-1,94,95,96,-1,96,95,97,-1,98,99,100,-1,100,99,101,-1,102,103,104,-1,104,103,105,-1,106,107,108,-1,108,107,109,-1,110,111,112,-1,112,111,113,-1,114,115,116,-1,114,117,115,-1,115,117,118,-1,115,118,119,-1,119,118,120,-1,119,120,121,-1,121,120,122,-1,121,122,123,-1,123,122,124,-1,123,124,125,-1,125,124,126,-1,125,126,127,-1,127,126,128,-1,127,128,129,-1,129,128,130,-1,129,130,131,-1,131,130,132,-1,131,132,133,-1,133,132,134,-1,133,134,135,-1,135,134,136,-1,135,136,137,-1,137,136,138,-1,137,138,139,-1,139,138,140,-1,139,140,141,-1,141,140,142,-1,141,142,143,-1,143,142,144,-1,143,144,145,-1,145,144,146,-1,145,146,147,-1,147,146,148,-1,147,148,149,-1,149,148,150,-1,149,150,151,-1,151,150,152,-1,151,152,153,-1,153,152,154,-1,153,154,155,-1,155,154,156,-1,155,156,157,-1,157,156,158,-1,157,158,159,-1,159,158,160,-1,159,160,161,-1,161,160,162,-1,161,162,116,-1,116,162,163,-1,116,163,114,-1,164,165,166,-1,166,165,167,-1,166,167,168,-1,169,170,166,-1,166,170,171,-1,166,171,164,-1,172,173,166,-1,166,173,174,-1,166,174,169,-1,175,176,166,-1,166,176,177,-1,166,177,172,-1,178,179,166,-1,166,179,180,-1,166,180,175,-1,181,182,166,-1,166,182,183,-1,166,183,178,-1,184,185,166,-1,166,185,186,-1,166,186,181,-1,168,187,166,-1,166,187,188,-1,166,188,184,-1,189,190,191,-1,189,192,190,-1,190,192,193,-1,190,193,194,-1,194,193,195,-1,194,195,196,-1,196,195,197,-1,196,197,198,-1,198,197,199,-1,198,199,200,-1,200,199,201,-1,200,201,202,-1,202,201,203,-1,202,203,204,-1,204,203,205,-1,204,205,206,-1,206,205,207,-1,206,207,208,-1,208,207,209,-1,208,209,210,-1,210,209,211,-1,210,211,212,-1,212,211,213,-1,212,213,214,-1,214,213,215,-1,214,215,216,-1,216,215,217,-1,216,217,218,-1,218,217,219,-1,218,219,220,-1,220,219,221,-1,220,221,222,-1,222,221,223,-1,222,223,224,-1,224,223,225,-1,224,225,226,-1,226,225,227,-1,226,227,228,-1,228,227,229,-1,228,229,230,-1,230,229,231,-1,230,231,232,-1,232,231,233,-1,232,233,234,-1,234,233,235,-1,234,235,236,-1,236,235,237,-1,236,237,191,-1,191,237,238,-1,191,238,189,-1,239,240,241,-1,241,240,242,-1,241,242,243,-1,244,245,241,-1,241,245,246,-1,241,246,239,-1,247,248,241,-1,241,248,249,-1,241,249,244,-1,250,251,241,-1,241,251,252,-1,241,252,247,-1,253,254,241,-1,241,254,255,-1,241,255,250,-1,256,257,241,-1,241,257,258,-1,241,258,253,-1,259,260,241,-1,241,260,261,-1,241,261,256,-1,243,262,241,-1,241,262,263,-1,241,263,259,-1,226,240,224,-1,224,240,239,-1,224,239,222,-1,222,239,246,-1,222,246,220,-1,220,246,245,-1,220,245,218,-1,218,245,244,-1,218,244,216,-1,216,244,249,-1,216,249,214,-1,214,249,248,-1,214,248,212,-1,212,248,247,-1,212,247,210,-1,210,247,252,-1,210,252,208,-1,208,252,251,-1,208,251,206,-1,206,251,250,-1,206,250,204,-1,204,250,255,-1,204,255,202,-1,202,255,254,-1,202,254,200,-1,200,254,253,-1,200,253,198,-1,198,253,258,-1,198,258,196,-1,196,258,257,-1,196,257,194,-1,194,257,256,-1,194,256,190,-1,190,256,261,-1,190,261,191,-1,191,261,260,-1,191,260,236,-1,236,260,259,-1,236,259,234,-1,234,259,263,-1,234,263,232,-1,232,263,262,-1,232,262,230,-1,230,262,243,-1,230,243,228,-1,228,243,242,-1,228,242,226,-1,226,242,240,-1,151,179,149,-1,149,179,178,-1,149,178,147,-1,147,178,183,-1,147,183,145,-1,145,183,182,-1,145,182,143,-1,143,182,181,-1,143,181,141,-1,141,181,186,-1,141,186,139,-1,139,186,185,-1,139,185,137,-1,137,185,184,-1,137,184,135,-1,135,184,188,-1,135,188,133,-1,133,188,187,-1,133,187,131,-1,131,187,168,-1,131,168,129,-1,129,168,167,-1,129,167,127,-1,127,167,165,-1,127,165,125,-1,125,165,164,-1,125,164,123,-1,123,164,171,-1,123,171,121,-1,121,171,170,-1,121,170,119,-1,119,170,169,-1,119,169,115,-1,115,169,174,-1,115,174,116,-1,116,174,173,-1,116,173,161,-1,161,173,172,-1,161,172,159,-1,159,172,177,-1,159,177,157,-1,157,177,176,-1,157,176,155,-1,155,176,175,-1,155,175,153,-1,153,175,180,-1,153,180,151,-1,151,180,179,-1,
        ]
    }
}